<svg version="1.2" baseProfile="tiny-ps" xmlns="http://www.w3.org/2000/svg" viewBox="0 0 1536 1536" width="1536" height="1536">
	<title>Vector Smart Object-ai</title>
	<style>
		tspan { white-space:pre }
		.shp0 { fill: #ffffff } 
	</style>
	<g id="Capa 1">
		<g id="&lt;Group&gt;">
			<g id="&lt;Group&gt;">
				<g id="&lt;Group&gt;">
					<path id="&lt;Path&gt;" class="shp0" d="M921.61 648.6L943.67 937.83C941.7 967.71 916.9 991.35 886.52 991.35C856.13 991.35 831.34 967.71 829.36 937.83L851.42 648.6C803.11 630.73 768 576.99 768 513.46C768 435.33 821.06 372 886.52 372C951.98 372 1005.04 435.33 1005.04 513.46C1005.04 576.99 969.93 630.73 921.61 648.6Z" />
				</g>
			</g>
			<g id="&lt;Group&gt;">
				<g id="&lt;Group&gt;">
					<path id="&lt;Path&gt;" class="shp0" d="M722.12 372C722.12 496.02 722.12 558.47 722.12 559.33C722.12 599.72 697.03 634.19 661.61 648.18L683.7 937.83C681.73 967.71 656.92 991.35 626.54 991.35C596.16 991.35 571.36 967.71 569.39 937.83L591.48 648.18C556.06 634.19 530.97 599.72 530.97 559.33C530.97 558.47 530.97 496.02 530.97 372L569.2 372L569.2 555.51L607.43 555.51L607.43 372L645.66 372L645.66 555.51L683.89 555.51L683.89 372L722.12 372Z" />
				</g>
			</g>
		</g>
		<path id="Your Logo
" fill="#ffffff" aria-label="Your Logo"  d="M295.32 1105.07L258.58 1105.07L226.82 1158.26L195.06 1105.07L155.07 1105.07L206.15 1190.4L206.15 1239L244.04 1239L244.04 1190.98ZM366.68 1241.68C409.54 1241.68 441.11 1212.21 441.11 1172.03C441.11 1131.85 409.54 1102.39 366.68 1102.39C323.83 1102.39 292.26 1131.85 292.26 1172.03C292.26 1212.21 323.83 1241.68 366.68 1241.68ZM366.68 1210.3C346.4 1210.3 330.52 1195.18 330.52 1172.03C330.52 1148.88 346.4 1133.77 366.68 1133.77C386.97 1133.77 402.85 1148.88 402.85 1172.03C402.85 1195.18 386.97 1210.3 366.68 1210.3ZM522.81 1241.68C562.42 1241.68 585.76 1219.29 585.76 1179.3L585.76 1105.07L548.45 1105.07L548.45 1178.16C548.45 1201.12 538.88 1210.3 523.2 1210.3C507.31 1210.3 497.75 1201.12 497.75 1178.16L497.75 1105.07L459.86 1105.07L459.86 1179.3C459.86 1219.29 483.21 1241.68 522.81 1241.68ZM694.25 1239L734.81 1239L705.92 1196.91C722.57 1188.87 732.13 1174.33 732.13 1154.62C732.13 1124.01 709.17 1105.07 672.63 1105.07L611.4 1105.07L611.4 1239L649.28 1239L649.28 1203.41L669.95 1203.41ZM693.87 1154.62C693.87 1166.87 686.02 1174.14 670.33 1174.14L649.28 1174.14L649.28 1134.91L670.33 1134.91C686.02 1134.91 693.87 1142.18 693.87 1154.62ZM808.67 1239L910.46 1239L910.46 1208.96L846.55 1208.96L846.55 1105.07L808.67 1105.07ZM990.82 1241.68C1033.68 1241.68 1065.25 1212.21 1065.25 1172.03C1065.25 1131.85 1033.68 1102.39 990.82 1102.39C947.96 1102.39 916.39 1131.85 916.39 1172.03C916.39 1212.21 947.96 1241.68 990.82 1241.68ZM990.82 1210.3C970.53 1210.3 954.65 1195.18 954.65 1172.03C954.65 1148.88 970.53 1133.77 990.82 1133.77C1011.1 1133.77 1026.98 1148.88 1026.98 1172.03C1026.98 1195.18 1011.1 1210.3 990.82 1210.3ZM1174.88 1205.9C1168.18 1208.96 1161.49 1210.3 1154.41 1210.3C1131.83 1210.3 1116.52 1194.61 1116.52 1172.03C1116.52 1148.88 1131.83 1133.77 1154.79 1133.77C1167.61 1133.77 1178.13 1138.55 1187.32 1148.69L1211.42 1126.88C1198.22 1111 1177.94 1102.39 1152.88 1102.39C1109.44 1102.39 1078.26 1131.28 1078.26 1172.03C1078.26 1212.79 1109.44 1241.68 1152.11 1241.68C1171.63 1241.68 1192.87 1235.75 1208.36 1224.65L1208.36 1169.16L1174.88 1169.16ZM1300.01 1241.68C1342.87 1241.68 1374.44 1212.21 1374.44 1172.03C1374.44 1131.85 1342.87 1102.39 1300.01 1102.39C1257.15 1102.39 1225.58 1131.85 1225.58 1172.03C1225.58 1212.21 1257.15 1241.68 1300.01 1241.68ZM1300.01 1210.3C1279.73 1210.3 1263.85 1195.18 1263.85 1172.03C1263.85 1148.88 1279.73 1133.77 1300.01 1133.77C1320.29 1133.77 1336.17 1148.88 1336.17 1172.03C1336.17 1195.18 1320.29 1210.3 1300.01 1210.3Z" />
	</g>
</svg>