<svg version="1.2" baseProfile="tiny-ps" xmlns="http://www.w3.org/2000/svg" viewBox="0 0 410 435" width="410" height="435">
	<title>Vector Smart Object (Double Click to Edit)7</title>
	<style>
		tspan { white-space:pre }
		.shp0 { opacity: 0.502;fill: #e26241 } 
	</style>
	<path id="Vector Smart Object (Double Click to Edit)" class="shp0" d="M228.37 266.46C228.44 265.75 229.43 265.73 229.59 266.39C235.27 288.94 296.62 351.62 273.98 375.51C273.47 376.04 272.58 376.1 271.93 375.88C270.07 375.28 257.63 369.34 259.9 368.53C260.88 368.19 267.25 395.8 267.75 397.93C268.43 400.79 264.86 401.88 263.07 400.19C257.29 400.44 257.07 404.3 262.41 411.77C262.98 414.47 259.95 416.03 257.8 414.79C256.16 413.84 253.78 429.58 252.4 432.92C251.44 435.25 248.7 435.65 246.98 433.92C247.82 434.77 233.99 418.46 233.91 418.45C232.91 418.35 233.81 414.71 232.49 422.64C232.16 424.62 229.74 425.12 228.72 423.36C221.95 411.69 219.88 405.03 219.35 392.31C219.23 389.43 223.71 389.79 223.81 392.65C227.35 417.54 229.18 422.52 229.3 407.59C229.46 404.67 233.36 404.21 234.65 406.57C242.51 427.6 247 428.29 248.1 408.65C247.15 406.71 249.26 403.83 251.44 404.93C256.3 401.68 256.53 397.05 252.13 391.04C251.57 388.33 254.58 386.82 256.71 388.03C272.07 396.73 256.67 370.01 253.54 362.03C252.76 360.04 254.83 358.06 256.72 359.3C261.8 362.14 266.4 365.61 270.53 369.72C272.83 356.54 270.54 344.65 263.67 334.03C257.35 321.48 247.6 313.12 239.58 302.14C230.92 290.29 226.98 281.34 228.37 266.46L228.37 266.46ZM219.64 392.01C220.23 390.71 222.18 391.38 221.75 392.77C219.41 400.32 216.64 407.36 212.92 414.3C212.13 415.76 209.43 415.2 209.32 413.54C207.84 392.77 206.08 372.03 204.36 351.28C205.38 351.36 206.39 351.44 207.41 351.52C202.59 362.1 197.79 372.68 192.58 383.08C192.24 383.76 191.33 384.09 190.77 383.41C187.01 378.82 188.29 372.11 182 373.04C181.45 373.13 180.73 372.67 180.86 372.03C181.74 367.57 181.51 363.46 180.42 359.05C180.33 358.68 180.9 358.5 181.05 358.84C182.42 361.9 182.71 371.67 187.39 369.14C188.05 368.79 188.92 369.38 188.83 370.13C190.53 379.68 192.19 381.07 193.83 374.3C194.94 371.62 196.1 368.96 197.31 366.33C199.65 361.02 202.05 355.74 204.42 350.44C205 349.16 207.32 348.97 207.48 350.67C209.33 371.38 211.14 392.09 213.23 412.78C212.03 412.53 210.84 412.27 209.64 412.02C213.1 405.42 216.55 398.8 219.64 392.01L219.64 392.01ZM179.04 359.33C179.24 359.01 179.78 359.29 179.63 359.64C176.81 366.3 177.93 364.87 171.92 368.48C171.23 368.9 170.55 368.07 170.74 367.42C175.64 350.53 181.2 333.96 188.29 317.86C195.67 301.09 211.26 281.51 206.09 262.48C205.98 262.09 206.54 261.97 206.72 262.27C214.73 275.63 204.71 289.26 198.7 301.72C193.25 313.01 188.4 324.53 183.79 336.19C181.95 340.85 180.13 345.51 178.41 350.23C177.26 353.38 174.38 367.01 179.04 359.33L179.04 359.33ZM207.76 263.8C208.14 264.83 206.83 265.44 206.25 264.53C199.79 254.4 191.57 248.33 179.25 248.31C179.69 247.45 180.12 246.59 180.56 245.73C188.75 257.1 204.3 271.71 203.7 286.81C203.65 288.08 201.79 288.77 201.02 287.69C198.21 283.77 192.61 280.83 187.79 280.78C188.28 280.06 188.78 279.33 189.27 278.61C191.42 283.91 196.18 300.41 189.42 304.63C183.2 308.52 175.22 295.89 172.1 292.06C171.59 291.45 172.43 290.42 173.07 290.99C175.1 292.82 178.89 298.13 181.11 298.94C195.99 304.41 188.78 284.95 186.55 279.93C186.06 278.84 186.87 277.75 188.02 277.76C194.65 277.82 199.46 280.3 203.34 285.7C202.44 285.99 201.55 286.28 200.66 286.58C201.16 273.39 185.56 258.02 178.18 247.77C177.39 246.66 178.08 245.15 179.49 245.19C191.65 245.5 203.4 251.98 207.76 263.8L207.76 263.8ZM172.54 292.7C171.94 291.62 173.64 290.82 174.25 291.87C179.24 300.3 182.51 309.02 184.32 318.64C184.48 319.52 183.77 320.25 182.91 320.22C179.76 320.11 178.21 316.9 175.73 316.67C169.16 316.05 169.95 325.23 169.34 330.19C168.37 337.97 165.91 344.65 159.83 349.75C159.28 350.21 158.38 350.3 157.79 349.85C148.81 342.95 140.32 332.53 140.14 320.72C140.11 318.95 142.48 318.89 143.22 320.13C146.88 326.25 148.94 332.93 153.11 338.88C155 341.57 156.08 344.92 159.58 344.04C162.66 343.26 163.64 339.94 164.62 337.11C166.68 331.22 164.24 319.49 168.32 314.5C170.8 311.47 173.26 311.64 176.49 313.53C180.73 316.03 182.05 318.12 179.94 310.43C178.22 304.16 175.69 298.37 172.54 292.7L172.54 292.7ZM140.14 321.05C140.06 319.92 141.76 319.54 141.9 320.71C144.24 340.99 143.6 360.36 138.39 380.14C137.94 381.87 135.76 381.49 134.99 380.33C129 371.18 128.57 371.55 121.37 376.21C117.37 378.8 113.42 383 109.79 386.09C109.23 386.57 108.09 386.32 108.03 385.48C107.81 382.58 109 374.43 105.31 372.94C105.47 373.01 97.49 376.73 98.06 376.52C97.5 376.73 97.05 376.47 96.87 375.93C94.43 368.47 93.69 362.08 95.38 354.51C95.52 353.87 96.51 354.13 96.46 354.74C95.9 362.44 95.02 379.66 106.91 368.77C107.41 368.31 108.42 368.59 108.48 369.32C109.01 375.12 107.34 382.11 113.93 379.23C118.39 377.28 123.31 370.4 126.88 367.06C127.56 366.42 128.67 366.58 129.26 367.24C132.45 370.82 135.28 374.4 138.06 378.31C137.01 378.51 135.96 378.7 134.92 378.89C139.16 359.91 141.4 340.48 140.14 321.05L140.14 321.05ZM96.96 353.14C98.41 353.98 97.88 356.61 96.19 356.78C94.58 356.83 93.03 357.19 91.55 357.86C89.71 358.64 87.91 357.35 87.92 355.39C88.03 341.37 85.45 322.07 95.17 310.38C95.75 309.68 96.96 310 96.9 311C96.47 317.88 93.32 324.51 92.35 331.42C91.26 339.1 90.81 347.59 92.93 355.1C91.55 354.62 90.17 354.14 88.8 353.66C91.76 351.61 93.84 351.33 96.96 353.14L96.96 353.14ZM95.82 310.53C96.24 310.26 96.57 310.84 96.38 311.18C94.27 315.08 90.9 317.36 87.08 319.43C85.98 320.03 84.89 319.03 84.88 317.93C84.87 314.51 84.99 311.1 85.08 307.68C85.97 308.13 86.87 308.58 87.76 309.04C82.53 312.62 77.32 316.22 72.07 319.77C71.19 320.36 69.56 320.19 69.45 318.85C68.8 311.19 69.87 303.74 73.6 296.99C74.53 298.08 75.45 299.16 76.38 300.24C72.95 302.14 69.69 302.74 65.81 302.6C64.43 302.55 63.66 301.09 64.05 299.87C66.09 293.44 69.34 286.77 74.76 282.55C75.87 281.69 77.35 283 76.57 284.19C72.95 289.78 69.6 294.68 67.88 301.26C67.29 300.35 66.71 299.44 66.12 298.53C69.26 298.48 71.71 297.67 74.45 296.26C76.53 295.19 78.3 297.7 77.23 299.51C73.65 305.55 71.87 311.18 72.6 318.24C71.73 317.93 70.86 317.63 69.98 317.32C75.18 313.71 80.42 310.15 85.64 306.57C86.8 305.78 88.36 306.43 88.32 307.93C88.22 311.34 88.15 314.76 87.94 318.17C87.21 317.67 86.47 317.17 85.74 316.67C89.37 315 92.43 312.59 95.82 310.53L95.82 310.53ZM74.59 279.61C75.8 279.52 76.7 281.35 75.33 281.82C71.14 283.26 68.18 283.49 63.79 282.76C62.41 282.53 61.83 281.23 62.49 280.03C68.13 269.62 79.14 267.32 87.31 259.63C94.65 252.73 94.52 244.05 98.57 235.54C100.68 231.11 104.37 227.67 106.61 223.52C109.66 217.83 104.49 223.46 101.48 225.87C99.29 227.62 97.28 229.57 95.33 231.6C89.76 237.41 85.11 244.02 79.69 249.97C74.32 255.86 67.88 263.59 59.32 262.44C59.11 262.41 59.02 262.2 59.12 262.02C60.38 258.23 61.64 254.43 62.91 250.64C62.98 250.07 63.89 250.15 63.8 250.71C63.91 250.03 62.06 259.17 61.71 258.73C65.69 263.85 69.32 258.57 72.02 256.86C78.07 253.05 82.58 245.85 87.08 240.37C94.03 231.9 101.06 224.04 111.1 219.25C111.43 219.09 111.7 219.53 111.44 219.76C101.74 228.47 100.71 236.21 97.16 247.96C95.68 252.89 94.18 256.82 90.58 260.56C82.74 268.75 70.85 271.41 65.35 282.01C64.92 281.1 64.48 280.19 64.05 279.28C67.53 280.02 71.04 280.13 74.59 279.61L74.59 279.61ZM62.17 246.22C62.7 246.06 63.21 246.61 63.17 247.11C62.46 255.62 49.89 262.31 42.12 262.53C39.66 262.6 36.89 262.23 35.96 259.52C34.7 255.9 39.13 253.66 38.93 250.21C39.59 250.54 40.26 250.88 40.93 251.21C35.53 253.09 21.42 256.21 18.44 248.91C17.47 246.54 18.6 243.91 20.08 242.06C22.09 239.56 25.91 238.6 28.29 236.66C30.71 234.69 32.03 232.03 34.18 229.86C34.68 229.34 35.49 229.89 35.47 230.51C35.33 234.62 32.85 237.55 29.58 239.95C27.31 241.62 19.48 244.47 24.33 249.38C27.34 252.42 36.46 249.73 40.04 248.55C41.01 248.24 41.69 249.25 41.72 250.05C41.77 251.37 40.87 252.64 40.92 253.72C38.63 256.14 40.16 257.47 45.5 257.7C47.2 256.77 48.81 255.71 50.35 254.54C54.21 251.54 57.39 247.63 62.17 246.22L62.17 246.22ZM254.88 258.39C254.56 258.13 254.82 257.5 255.24 257.7C278.02 268.55 301.08 288.01 327.52 284.77C344.52 282.68 357.29 276.56 374.29 281.21C376.55 281.83 376.22 284.84 374.54 285.84C379.2 293.61 385.93 297.14 394.74 296.42C395.3 296.51 395.46 297.11 395.09 297.52C390.21 302.87 392.61 301.23 385.75 303.49C384.32 303.97 383.87 301.63 385.31 301.18C392.62 298.89 360.01 293.99 362.24 294.13C360.89 294.05 359.82 292.24 360.8 291.1C372.81 277.21 350.32 285.28 341.17 286.81C331.03 288.5 321.43 292.15 311.02 291.02C290.02 288.74 270.62 270.88 254.88 258.39L254.88 258.39ZM384.61 303.93C383.05 302.88 384.69 300.53 386.26 301.53C392.71 305.65 398.37 310.52 403.53 316.17C404.42 317.14 403.81 318.82 402.53 319.05C399.88 319.52 397.24 319.99 394.6 320.46C393.06 320.74 389.01 320.7 387.84 321.7C386.52 322.82 389.3 326.13 389.2 328.26C389.14 329.31 388.12 329.74 387.23 329.54C386.17 329.42 385.2 329.06 384.32 328.47C383.57 328.09 383.35 326.61 384.47 326.53C386.16 326.41 386.14 326.38 387.84 326.68C387.32 327.13 386.79 327.58 386.26 328.04C386.24 324.56 380.57 322.66 384.26 318.9C385.97 317.15 388.98 317.26 391.19 316.97C394.75 316.51 398.3 316.04 401.85 315.58C401.52 316.54 401.18 317.51 400.85 318.47C396.12 312.84 390.68 308.04 384.61 303.93L384.61 303.93ZM383.47 325.25C384.98 326.23 383.39 328.53 381.87 327.56C372.38 321.43 353.89 330.14 347.02 320.14C346.53 319.44 347.09 318.39 348 318.71C351.61 319.99 354.53 321.51 358.46 321.83C361.6 322.09 364.78 321.82 367.92 321.77C373.54 321.68 378.68 322.13 383.47 325.25L383.47 325.25ZM382.57 329.31C381.59 328.32 383.2 327.02 384.19 327.93C390.3 333.6 396.41 339.28 402.53 344.95C403.4 345.76 402.75 347.49 401.6 347.61C394.42 348.37 387.02 348.28 379.96 346.78C378.74 346.52 378.55 344.91 379.83 344.56C387.01 342.6 394.6 342.81 401.84 344.48C401.25 345.34 400.66 346.21 400.06 347.07C394.23 341.15 388.4 335.23 382.57 329.31L382.57 329.31ZM377.72 346.19C378.56 345.91 379.71 346.8 378.99 347.68C378.51 349.02 378.04 350.36 377.56 351.7C377.07 350.94 376.58 350.18 376.09 349.42C381.74 351.61 386.17 355.54 391.18 358.83C394.46 360.97 397.74 362.75 401.73 362.76C403.46 362.77 405.76 361.91 407.46 362.56C409.56 363.37 410.76 365.8 409.47 367.8C407.64 370.65 400.78 371.43 397.79 371.08C396.2 370.89 396.02 368.99 397.25 368.21C399.25 366.92 400.52 366.61 402.9 366.27C406.39 365.78 406.96 365.98 403.03 366.19C400.24 366.33 397.85 366.05 395.23 365.03C387.78 362.13 382.38 355.91 374.58 353.64C373.33 353.27 372.95 351.88 373.23 350.77C373.93 348.03 375.06 347.1 377.72 346.19L377.72 346.19ZM396.77 374.32C395.27 371.52 399.75 369.34 401.2 372.16C403.5 376.62 407.05 381.5 408.49 386.3C409.01 388.03 409.57 389.68 408.19 391.18C406.36 393.18 402.38 392.74 400.08 392.83C394.99 393.03 390.33 392.98 385.66 390.75C386.32 390.32 386.97 389.9 387.62 389.48C387.28 392.19 389.06 395.13 389.43 397.83C389.64 399.28 388.62 400.25 387.24 400.3C382.19 400.46 376.6 400.61 373.18 396.36C372.46 395.46 373.12 394.05 374.31 394.14C378.75 394.46 382.36 396.73 387 396.19C386.46 397 385.91 397.81 385.37 398.62C384.99 395.96 385.87 392.42 384.84 390.01C384.48 389.18 384.9 388.06 385.88 387.92C388.5 387.54 390.77 387.48 393.39 387.63C395.72 387.77 400.66 388.96 402.81 387.93C404.79 388.85 404.94 388.32 403.24 386.33C402.52 384.99 401.8 383.66 401.09 382.33C399.65 379.66 398.21 376.99 396.77 374.32L396.77 374.32ZM373.99 393.71C374.73 394.44 373.78 395.45 372.95 395.23C368.07 393.92 364.24 392.28 359.92 389.78C361.35 389.09 362.79 388.41 364.22 387.73C363.66 391.82 364.11 395.76 365.58 399.54C365.92 400.73 364.57 401.63 363.54 401.29C351.94 397.41 344.05 394.06 335.16 385.7C325.55 376.65 315.67 367.14 308.67 355.86C308.31 355.29 309.18 354.83 309.6 355.25C317.81 363.65 325.7 372.24 334.19 380.38C339.78 385.72 344.72 390.95 351.95 394.14C359.67 397.54 363.21 399.54 359.02 388.72C358 386.1 360.62 383.86 363.05 385.26C367.31 387.72 370.55 390.27 373.99 393.71L373.99 393.71ZM310.02 359.51C309.82 359.11 310.4 358.87 310.63 359.22C317.74 370.14 323.63 381.94 331.04 392.65C331.85 393.83 330.49 395.77 329.21 394.68C326.32 392.22 322.72 390.56 320.47 387.51C320.06 386.95 320.43 386.22 321.12 386.22C325.51 386.25 328.37 389.41 331.04 392.65C330.27 393.15 329.51 393.65 328.75 394.15C323.19 382.3 315.92 371.21 310.02 359.51L310.02 359.51ZM318.71 389.08C318.99 387.62 321.27 387.74 321.05 389.26C320.23 394.95 324.58 404.54 316.28 406.71C312.69 407.66 310.4 404.78 308.07 402.49C304.99 399.45 301.64 396.09 301.4 391.62C301.3 389.72 303.67 388.57 305.23 389.14C307.94 390.14 309.08 391.97 310.66 394.3C312.09 396.43 313.05 399.87 314.75 401.64C318.18 405.2 318.9 397.58 318.72 395.69C318.5 393.41 318.26 391.36 318.71 389.08L318.71 389.08ZM301.35 393.6C301.63 392.54 303.32 392.49 303.72 393.48C305.32 397.45 305.3 401.61 302.03 404.71C301.35 405.36 300.09 405.09 299.71 404.23C298.08 400.47 295.6 396.96 293.4 393.52C291.43 390.43 288.97 387.44 288.1 383.84C287.97 383.29 288.69 382.78 289.14 383.16C291.7 385.31 293.1 388.27 294.8 391.11C297.11 394.96 299.3 399.15 302.2 402.6C301.33 403.02 300.46 403.44 299.59 403.86C299.38 400.29 300.45 397.02 301.35 393.6L301.35 393.6ZM290.84 382.89C290.67 383.63 289.57 383.44 289.44 382.78C288.95 380.34 288.66 378.01 288.52 375.52C289.67 375.6 290.82 375.69 291.97 375.78C290.49 378.95 288.82 383.07 285.64 384.8C285.24 385.02 284.81 384.72 284.7 384.33C283.68 380.47 280.56 377.33 278.7 373.83C277.06 370.71 275.28 367.48 274.07 364.17C273.47 362.53 275.57 361.52 276.49 362.99C278.35 365.99 279.8 369.36 281.25 372.59C282.87 376.19 283.45 380.62 285.85 383.78C285.47 383.85 285.1 383.91 284.73 383.98C286.06 380.81 288.15 378.73 288.49 375.03C288.71 372.73 292.29 373 292.07 375.31C291.83 377.93 291.44 380.34 290.84 382.89L290.84 382.89ZM257.55 260.05C257.07 259.74 257.48 258.94 258 259.16C267.06 263.01 276.07 266.83 284.77 271.42C295.78 277.23 306.85 284.76 318.46 289.15C322.11 290.53 319.14 296 316.07 293.8C307.08 287.37 296.09 282.89 286.35 277.59C276.41 272.19 267 266.27 257.55 260.05L257.55 260.05ZM372.01 282.43C371.42 282.1 371.49 281.24 371.93 280.84C374.31 278.65 377.38 278.15 380.53 277.76C379.83 279.15 379.14 280.54 378.45 281.93C376.76 279.01 374.5 277.02 372.42 274.43C370.42 271.95 373.42 268.83 376.04 270.41C379.18 272.32 385.41 271.82 388.98 272.14C392.51 272.46 396.05 272.54 399.46 273.51C400.36 273.77 400.23 275.22 399.32 275.34C395.81 275.82 392.28 275.39 388.75 275.21C384.97 275.02 379.23 273.59 375.68 275.11C375.8 273.55 375.92 271.98 376.04 270.41C379.58 272.38 381.84 275.86 383.73 279.36C384.58 280.92 383.51 283.36 381.65 283.54C378.3 283.87 375 284.13 372.01 282.43L372.01 282.43ZM402.04 273.62C402.15 274.25 401.63 274.88 400.97 274.82C395.17 274.25 387.77 268.58 386.14 262.92C385.45 260.52 388.47 259.13 390.27 260.22C392.34 261.47 395.82 260.58 397.86 259.76C399.88 258.95 402.13 258.21 404.06 257.27C404.38 257.12 404.71 257.44 404.61 257.76C403.51 261.18 402.18 262.84 398.73 264.17C395.22 265.52 392.14 264.97 388.55 265.07C388.69 263.3 388.82 261.53 388.96 259.76C394.73 260.96 401.01 267.79 402.04 273.62L402.04 273.62ZM403.43 253.36C404.06 254.24 402.92 255.23 402.15 254.46C398.06 250.33 380.39 249.27 383.75 239.74C383.84 239.49 384.16 239.32 384.42 239.43C389.53 239.17 390.66 238.86 387.81 238.51C386.94 238.36 386.08 238.21 385.21 238.06C383.48 237.76 381.76 237.46 380.03 237.16C376.93 236.62 373.94 235.94 370.89 235.2C370.52 235.1 370.67 234.51 371.03 234.54C378.01 235.21 384.9 236.47 391.82 237.61C392.41 237.71 392.89 238.57 392.27 238.99C390.54 240.16 389.33 240.03 387.46 240.92C387.02 241.13 385.84 240.63 385.66 240.84C384.71 241.94 388.4 244.87 389.34 245.48C394.17 248.59 399.83 248.39 403.43 253.36L403.43 253.36ZM366.05 233.91C365.19 234.03 364.93 232.7 365.79 232.59C369.67 232.12 372.4 230.72 374.62 227.34C374.99 228.11 375.35 228.88 375.72 229.65C370.72 229.3 365.71 228.6 360.82 227.49C356.77 226.58 351.85 225.77 348.74 222.88C348.44 222.6 348.66 222.01 349.06 221.96C352.96 221.52 356.98 223.25 360.77 224.09C365.81 225.21 370.83 226.04 375.95 226.71C377.12 226.87 377.88 228.49 376.79 229.3C373.59 231.69 370.01 233.36 366.05 233.91L366.05 233.91ZM352.05 220.68C351.8 222.6 349.25 222.28 349.15 220.46C348.63 210.9 330.25 214.3 323.09 214.9C320.99 215.07 319.13 212.42 321.14 210.86C320.68 211.21 310.3 214 306.39 215.22C295.11 218.74 285.49 222 274.62 226.99C260.68 233.4 246.74 235.98 231.88 232.69C231.31 232.57 231.54 231.66 232.09 231.72C253 233.8 271.58 218.83 291.01 213.95C298.97 215.37 306.78 214.28 314.43 210.67C317.32 208.72 320.35 207 323.5 205.51C325.1 205.3 325.3 205.74 327.69 206.39C328.39 206.58 328.53 207.46 328.2 208C329.08 206.58 350.18 213.2 353.69 214.71C355.18 215.34 355.63 217.76 353.89 218.46C353.28 219.2 352.66 219.94 352.05 220.68L352.05 220.68ZM213.2 222.34C213.51 222.62 213.18 223.14 212.81 222.89C210.72 221.44 208.5 220.18 206.79 218.29C206.42 217.88 206.96 217.4 207.38 217.63C209.57 218.82 211.33 220.69 213.2 222.34L213.2 222.34ZM229.61 231.07C230.74 231.74 229.58 233.35 228.46 232.73C199.34 216.74 169.77 194.62 150.86 166.8C150.49 166.27 151.16 165.67 151.62 166.14C176.01 190.8 199.43 213.4 229.61 231.07L229.61 231.07ZM200.82 255.8C200.38 255.41 200.57 254.66 201.22 254.68C203.36 254.41 205.46 254.52 207.51 255C215.18 258.35 216.36 258.01 211.04 253.97C209.65 250.03 205.71 246.08 204.08 241.92C203.48 240.39 204.47 238.26 206.37 238.54C208.28 238.11 210.18 237.69 212.09 237.27C212.16 238.53 212.22 239.8 212.29 241.06C204.38 237.87 200.73 235.11 195.73 228.62C185.76 215.68 178.94 218.16 166.02 212.08C152.58 205.76 139.82 189.77 142.14 174.27C142.45 172.2 145.34 171.96 145.83 174.06C148.71 186.41 150.35 198.13 161.92 205.81C168.62 210.26 175.84 211.28 183.26 213.67C196.97 218.09 200.37 232.17 213.69 237.18C215.01 237.68 215.66 239.78 214.33 240.69C210.45 243.33 210.64 243.29 206.01 243.23C206.78 242.11 207.54 240.98 208.31 239.86C210.97 246.35 215.96 250.87 220.66 255.91C221.32 256.63 221.59 257.91 221.19 258.82C217.12 268.15 205.99 260.41 200.82 255.8L200.82 255.8ZM187.72 216.33C187.75 216.42 187.68 216.53 187.58 216.49C179.85 213 173.72 206.67 167.73 200.77C159.41 192.57 151.22 184.49 142.36 176.83C140.37 175.12 142.64 171.71 144.72 173.42C153.36 180.53 162.07 187.7 170.41 195.15C177.21 201.23 184.23 207.75 187.72 216.33L187.72 216.33ZM133.85 174.48C129.47 183.03 114.99 181.23 107.33 179.78C98.55 178.13 90.64 174.43 83.15 169.63C82.6 169.27 82.1 170.04 82.58 170.46C93.44 179.78 128.63 196.5 136.48 175.43C137.13 173.69 134.64 172.93 133.85 174.48L133.85 174.48ZM63.07 173.02C63.21 173.18 63.11 173.44 62.91 173.48C58.26 174.47 54.52 173.03 50.07 171.64C47.05 170.69 48.73 165.97 51.74 166.99C56.13 168.48 59.91 169.52 63.07 173.02L63.07 173.02ZM79.18 167.12C79.66 167.29 79.39 168.02 78.92 167.86C72.38 165.6 65.63 163.99 58.83 165.82C59.15 164.9 59.47 163.99 59.79 163.07C62.02 166.08 65.49 171.68 62.68 175.18C62.25 175.72 61.48 175.81 61 175.27C59.84 173.97 59.85 173.22 59.53 171.51C59.08 169.11 58.24 166.98 57 164.9C56.15 163.49 57.82 162.29 59.08 162.58C65.86 164.12 72.61 164.74 79.18 167.12L79.18 167.12ZM48.02 168.83C50.37 167.88 52.59 170.9 50.51 172.64C46.48 176.02 42.03 184.53 42.53 189.92C43.17 196.82 47.91 198.47 53.5 201.29C53.97 201.53 54.22 202.39 53.57 202.61C46.09 205.12 39.23 209.35 33 214.15C32.75 212.81 32.51 211.46 32.26 210.12C36.73 212.33 39.81 214.89 42.81 218.91C43.76 220.18 43.13 221.66 41.7 222.12C40.79 222.41 31.33 225.05 29.93 227.35C28.17 230.22 29.79 230.28 33.03 232.65C33.6 233.07 33.13 233.97 32.47 233.74C29.5 232.87 26.63 231.75 23.85 230.37C22.95 229.97 22.4 228.81 23.07 227.93C27.69 221.83 33.36 219.11 40.95 218.26C40.58 219.33 40.21 220.4 39.84 221.47C37.87 217.97 34.81 215.68 30.66 214.58C28.84 213.93 28.74 211.81 29.92 210.55C33.5 206.7 37.43 203.6 42.59 202.1C41.6 202.39 50.66 199.93 49.88 201.16C50.55 200.1 36.87 195.29 39.54 195.96C38.68 195.74 38.31 194.79 38.28 194.01C38.03 185.46 38.94 172.5 48.02 168.83L48.02 168.83ZM248.29 230.14C247.55 233.03 243.42 232.23 242.83 229.72C241.82 225.48 241.2 220.96 240.46 216.66C239.82 212.92 245.3 210.91 246.87 214.52C248.14 217.44 251.98 219.07 254.57 220.59C257.32 222.2 260.04 223.85 262.94 225.18C265.23 226.22 263.35 229.53 261.42 228.15C259.12 226.5 256.72 225.12 254.27 223.71C251.59 222.18 247.72 219 244.46 219.36C245.26 217.75 246.06 216.13 246.87 214.52C248.85 219.28 249.57 225.11 248.29 230.14L248.29 230.14ZM270.14 222.11C269.72 224.55 266.82 225.08 265.54 222.98C264.54 221.36 264.36 220.75 263.8 218.92C262.69 215.29 268.46 213.57 269.97 216.86C269.59 216.05 274.74 215.64 275.25 215.76C277.86 216.37 278.16 218.3 281.14 217.29C286.48 215.48 289.66 213.8 294.9 216.81C295.83 217.33 295.11 218.5 294.29 218.54C289.78 218.77 286.39 220.05 282.44 221.92C280.61 222.79 278.9 223.16 276.97 222.31C275.43 221.63 275.14 220.46 273.28 220.38C272.27 220.34 270.5 221.28 269.55 221.53C267.7 222.02 266.85 222.09 265.15 220.99C266.85 219.88 268.54 218.77 270.24 217.66C270.4 219.57 270.46 220.23 270.14 222.11L270.14 222.11ZM303.08 214.06C304.02 217.31 299.29 218.4 297.82 215.82C294.31 208.98 289.96 202.7 284.75 196.99C283.46 195.56 284.23 192.7 286.31 192.5C294.7 191.72 273.96 181.26 273.54 181.12C263.42 177.56 252.95 175.42 242.38 173.59C239.79 173.15 239.11 169.01 242.1 168.65C265.49 165.77 294.05 174.47 316.88 180.06C315.17 181.52 313.46 182.99 311.75 184.46C310.44 179.94 309.12 175.43 307.81 170.91C307.18 169.09 308.22 166.65 310.5 166.95C316.6 169.25 321.77 167.61 326.03 162.02C335.82 159.43 337.64 156.72 331.49 153.9C329.12 149.39 319.2 145.9 314.6 143.18C313.86 142.74 314.34 141.53 315.16 141.61C320.51 142.15 374.5 134.02 356.49 118.79C356.12 118.48 356.01 117.7 356.59 117.5C362.84 117.04 366.73 113.62 368.28 107.27C366.74 106.96 366.92 104.5 368.47 104.81C370.85 105.28 373.23 105.76 375.6 106.23C376.56 106.42 377.25 107.67 376.31 108.4C374.35 109.92 355.88 119.65 367.17 122.3C367.79 122.44 367.91 123.25 367.62 123.71C361.01 134.08 349.65 139.18 337.86 142.35C337.1 142.56 322.51 145.65 322.63 144.99C322.7 144.62 341.34 157.88 342.61 158.93C343.3 159.49 343.48 160.56 342.73 161.18C332.94 169.3 312.24 169.03 319.05 182.02C320.31 184.41 318.19 188.18 315.26 187.59C296.74 183.87 274.55 180.21 257.03 173.33C243.71 168.09 259.24 172.51 261.55 173.07C273.5 175.94 285.17 181.7 296.19 187C297.02 187.4 297.84 188.46 297.34 189.45C291.57 200.72 299.38 201.27 303.08 214.06L303.08 214.06ZM375.85 101.62C375.22 102.12 374.5 101.24 375.05 100.68C377.03 98.61 384.97 95.49 382.15 91.67C380.91 89.99 377.41 90.04 375.54 89.69C373.28 89.25 371.02 88.82 368.77 88.38C368.35 88.3 368.38 87.66 368.82 87.71C372.73 88.18 376.81 88.37 380.66 89.17C382.7 89.59 384.79 89.99 385.52 92.17C387.46 97.96 378.8 99.23 375.85 101.62L375.85 101.62ZM370.45 82.92C370.24 83.21 369.78 82.9 369.99 82.6C370.43 81.95 371.83 80.46 372.03 79.62C372.53 77.49 371.41 77.61 369.79 77.95C368.07 78.31 366.11 79.75 364.52 80.53C360.94 82.29 357.44 83.98 353.59 85.09C353.28 85.19 353.03 84.7 353.31 84.51C356.42 82.4 359.7 80.84 363.11 79.3C365.45 78.25 368.48 76.08 371.12 76.12C376.6 76.19 371.78 81.1 370.45 82.92L370.45 82.92ZM349.04 85.78C349.7 85.6 349.9 86.53 349.39 86.83C345.91 88.89 343.33 89.59 339.38 89.7C338.17 89.73 337.62 88.16 338.23 87.27C338.99 86.15 348.16 73.87 347.61 72.85C346.92 71.57 337.13 76.87 335.6 77.62C327.82 81.44 320.59 85.17 311.72 84.9C311.37 84.89 311.21 84.52 311.29 84.23C311.96 81.67 312.69 79.56 313.86 77.2C314.27 76.37 315.51 76.77 315.23 77.69C313.32 83.84 313.05 84.87 320.56 83.14C324.95 82.13 329.2 80.09 333.2 78.05C338.78 75.2 344.59 70.78 351.04 70.6C352.27 70.57 353.22 72.14 352.73 73.22C350.05 79.26 344.81 83.85 340.78 89.04C340.39 88.22 340.01 87.41 339.62 86.6C342.87 86.85 345.89 86.62 349.04 85.78L349.04 85.78ZM316.62 78.63C316.42 79.91 314.59 79.79 314.61 78.48C314.69 73.24 314.73 68.26 314.32 63C315.61 63.64 316.9 64.29 318.19 64.94C306.69 68.88 295.65 73.7 284.47 78.47C283.14 79.04 281.02 78.08 281.38 76.36C282.25 72.12 282.93 67.88 283.61 63.61C284.46 64.19 285.32 64.77 286.17 65.35C277.44 69.72 268.76 74.16 260.08 78.64C258.22 79.61 256.81 76.68 258.66 75.72C267.34 71.24 275.99 66.73 284.61 62.13C285.77 61.51 287.35 62.55 287.17 63.88C286.61 68.16 286.05 72.39 285.68 76.69C284.65 75.99 283.62 75.28 282.59 74.58C293.18 68.75 304.47 64.19 315.81 60.01C318.11 59.16 320.19 60.99 319.57 63.4C318.25 68.53 317.43 73.44 316.62 78.63L316.62 78.63ZM257.4 78.19C256.75 78.89 255.51 77.99 255.89 77.15C257.09 74.87 257.82 72.45 258.09 69.86C258.78 70.47 259.46 71.09 260.15 71.7C257.38 72 254.61 72.27 251.83 72.53C250.93 72.61 249.86 72.14 249.74 71.11C249.3 67.53 250.67 66.66 253.36 64.35C261.05 57.76 266.66 52.83 270.19 42.94C270.99 43.66 271.79 44.38 272.59 45.11C268.8 47.43 265.52 48.6 261.1 49.21C260.06 49.35 258.88 48.55 259.05 47.38C259.45 44.55 261.04 42.33 261.55 39.67C261.92 38.88 262.29 38.1 262.66 37.31C259.3 31.38 255.79 30.08 252.12 33.41C248.61 34.53 245.3 39.47 241.46 39.25C232.86 38.77 241.41 31.66 239.64 28.04C240.49 28.21 241.35 28.39 242.2 28.57C236.08 35.16 230.59 42.08 225.26 49.32C224.07 50.94 221.54 49.2 222.69 47.53C227.91 39.91 233.78 32.83 240.05 26.05C240.79 25.25 242.19 25.72 242.61 26.59C243.79 28.97 240.93 33.86 242.66 35.23C243.65 36.02 256.56 26.23 260.01 26.27C272.78 26.43 263.23 42.32 262.49 47.64C261.81 47.03 261.13 46.42 260.44 45.81C264.37 45.26 267.7 44.05 271.07 41.97C272.42 41.13 273.94 42.8 273.47 44.13C271.43 49.88 268.65 55.09 264.52 59.65C262.48 61.9 260.24 63.68 257.9 65.59C253.22 69.39 253.81 68.73 259.49 68.29C260.46 68.21 261.8 68.9 261.55 70.13C260.83 73.63 259.85 75.55 257.4 78.19L257.4 78.19ZM225.28 45.54C225.08 46.73 223.25 46.64 223.39 45.4C225.9 21.74 208.11 46.78 205.59 50.34C200.22 57.94 195.46 65.68 189.78 73.06C188.87 74.25 186.46 74.11 186.32 72.34C185.71 65.1 185.73 52.58 177.7 51.1C169.75 49.64 170.02 61.6 168.03 68.04C167.76 68.92 166.77 69.25 165.96 69.01C158.65 66.88 168.77 113.21 168.92 115.8C169.27 121.89 169.22 128.13 168.06 134.13C165.35 148.06 160.23 159.17 145.51 160.46C142.7 160.71 141.98 156.98 144.68 156.17C181.9 144.91 154.51 90.17 157.68 65.24C157.82 64.14 158.82 63.5 159.87 63.82C168.25 66.32 172.05 44.01 173.08 40.42C173.4 39.33 174.91 38.89 175.8 39.55C185.5 46.89 181.99 53.3 188.56 60.83C193.32 66.29 197.33 54.97 202.64 48.3C208.39 41.06 214.27 33.96 220.31 26.96C220.97 26.19 222.22 26.12 222.71 27.14C225.98 33.93 226.59 38.08 225.28 45.54L225.28 45.54ZM212.2 218.43C212.3 218.35 212.44 218.4 212.47 218.53C212.6 218.94 212.72 219.34 212.84 219.75C214.28 221.94 211.12 224.02 209.26 222.83C198.22 215.76 194.85 202.51 189.95 191C189.3 189.47 189.37 187.68 188.86 186.19C184.53 173.45 180.96 172.23 170.92 170.48C164.26 169.32 157.67 169.04 151.11 167.29C148.22 166.52 149.31 161.81 152.21 162.18C163.2 163.61 182.43 166.2 189.84 175.74C195.02 182.4 194.8 191.65 200.29 198.63C201.52 200.2 216.43 215.1 212.2 218.43L212.2 218.43ZM146.01 158.49C146.45 159.21 145.32 159.9 144.8 159.29C99.7 105.4 56.55 45.62 1.93 0.83C1.49 0.46 1.96 -0.25 2.44 0.09C28.85 18.62 49.77 42.51 71.4 66.31C98.78 96.43 124.42 123.36 146.01 158.49L146.01 158.49ZM1.43 2.15C1.6 1.48 2.73 1.73 2.62 2.41C0.39 15.37 18.1 26.71 26.16 34.95C41.25 50.38 55.81 66.34 70.23 82.4C94.3 109.18 121.72 135.95 138.41 168.22C138.9 169.17 137.46 170.15 136.83 169.26C112.57 134.92 82.23 103.11 54.03 72.01C39.73 56.23 25.24 40.58 10.15 25.54C0.39 15.81 -1.84 14.69 1.43 2.15L1.43 2.15ZM134.96 168.05C134.74 166.76 136.64 166.41 136.94 167.66C137.8 171.22 137.38 175.79 133.73 177.55C133.32 177.74 132.89 177.34 133.03 176.92C134.07 173.81 135.56 171.52 134.96 168.05L134.96 168.05ZM394.16 379.49C395.5 380.33 394.09 382.38 392.75 381.52C337.53 345.83 284.01 306.84 236.14 261.61C235.86 261.34 236.3 260.87 236.59 261.11C286.86 303.91 338.13 344.4 394.16 379.49L394.16 379.49ZM229.67 254.43C230.53 255.08 229.57 256.47 228.71 255.81C222.37 250.9 216.8 245.41 211.53 239.36C211.39 239.19 211.64 238.99 211.79 239.14C217.34 244.66 223.42 249.71 229.67 254.43L229.67 254.43ZM232.49 362.56C232.51 362.64 232.4 362.66 232.38 362.58C226.05 338.15 218.38 311.15 221.29 285.68C221.41 284.57 223.09 284.42 223.28 285.57C227.48 311.2 226.7 337.03 232.49 362.56L232.49 362.56ZM242.25 408.65C243.05 411.2 238.72 412.61 237.83 410.13C234.7 401.42 231.61 392.74 233.34 383.45C233.47 382.78 234.39 382.48 234.72 383.18C238.56 391.28 239.61 400.12 242.25 408.65L242.25 408.65ZM136.11 193.78C136.33 193.01 137.43 193.33 137.41 194.06C136.73 224.06 128.51 253.18 125.41 283.04C122.31 312.82 120.32 342.69 119.25 372.61C119.18 374.63 115.97 374.39 116.13 372.37C120.61 314.99 119.67 249.03 136.11 193.78L136.11 193.78ZM387.2 250.8C389.41 250.7 390 254.28 388 255.06C369.74 262.17 351.58 254.75 332.59 252.84C306.93 250.27 281.25 252.16 255.73 249.34C255.37 249.3 255.31 248.73 255.69 248.67C298.72 242.53 343.74 252.81 387.2 250.8L387.2 250.8ZM252.66 247.63C252.97 247.7 252.85 248.22 252.54 248.17C249.96 247.76 247.33 247.17 244.73 247.1C242.21 247.04 239.68 247.48 237.16 247.58C233.98 247.7 230.2 247.39 228.79 244.21C228.51 243.59 228.67 242.93 229.15 242.47C231.8 239.89 235.71 241.35 238.71 242.74C243.43 244.93 247.57 246.49 252.66 247.63L252.66 247.63ZM368.18 95.62C369.41 95.04 370.69 96.84 369.52 97.67C351.47 110.46 330.72 114.83 309.41 119.53C283.02 125.35 258.33 139.94 231.87 143.48C231.07 143.59 230.89 142.5 231.63 142.27C253.7 135.38 273.63 123.99 296.01 117.93C320.74 111.23 344.74 106.59 368.18 95.62L368.18 95.62ZM209.02 147.71C209.43 147.57 209.72 148.16 209.32 148.31C195.23 153.47 180.69 158.62 165.95 161.52C165.16 161.67 164.97 160.52 165.72 160.3C180.2 156.13 194.74 152.62 209.02 147.71L209.02 147.71ZM288.48 207.54C288.96 207.84 288.55 208.67 288.02 208.43C255.55 193.56 223.43 178.49 189.97 165.97C188.82 165.54 189.45 163.81 190.62 164.17C225.1 174.75 258.1 188.23 288.48 207.54L288.48 207.54ZM182.02 161.92C183.86 161.66 183.62 164.61 181.86 164.08C181.54 163.98 181.22 163.88 180.9 163.79C180.06 163.53 180.16 162.19 181.03 162.06C181.36 162.02 181.69 161.97 182.02 161.92L182.02 161.92ZM203.33 170.91C202.94 170.59 203.34 170.01 203.77 170.26C209.3 173.52 209.97 178.92 211.78 184.57C213.1 188.67 214.76 192.82 217.01 196.51C219.34 200.3 222.9 203.3 224.42 207.51C224.79 208.52 223.99 209.53 222.9 209.21C216.79 207.41 212.99 200.08 210.68 194.57C207.75 187.6 209.62 176.08 203.33 170.91L203.33 170.91ZM169.8 260.85C169.91 261.03 169.61 261.18 169.5 260.99C166.42 255.87 161.82 252.18 158.67 247.18C155.66 242.4 155.83 237.42 153.92 232.22C150.1 221.8 139.84 215.45 135.28 205.33C135.1 204.93 135.71 204.64 135.88 205.03C140.27 214.8 149.93 220.92 154.01 230.73C156.62 237.01 156.4 243.59 160.75 249.27C163.76 253.21 167.25 256.55 169.8 260.85L169.8 260.85ZM182.93 236.53C183.14 236.59 183.02 236.9 182.81 236.85C172.38 234.27 161.7 232.72 150.96 232.29C150.31 232.26 150.39 231.26 151.04 231.28C162.02 231.65 172.42 233.35 182.93 236.53L182.93 236.53ZM157.15 330.69C157.22 331.72 155.67 332.49 155.25 331.32C150.18 317.19 144.29 302.72 138.72 288.76C134.3 277.67 126.23 266.28 125.98 254.21C125.95 252.58 128.45 252.19 129.06 253.62C132.25 261.09 132.76 269.14 135.84 276.71C138.88 284.18 142.95 290.54 147.11 297.39C153.72 308.29 156.24 318.17 157.15 330.69L157.15 330.69ZM131.28 236.44C131.81 235.94 132.51 236.78 132.01 237.29C123.69 245.76 119.76 257.14 112.58 266.47C106.6 274.26 99.12 280.79 91.85 287.33C90.77 288.3 89.35 286.61 90.39 285.63C99.01 277.52 107.74 269.26 114.59 259.56C120.15 251.7 124.16 243.09 131.28 236.44L131.28 236.44ZM122.22 303.11C122.25 302.81 122.75 302.76 122.78 303.08C123.35 310.77 123.17 316.68 119.92 323.92C116.92 330.6 112.36 336.32 107.09 341.33C105.11 343.21 102.2 339.84 104.32 338.09C114.38 329.82 120.86 316.11 122.22 303.11L122.22 303.11ZM132.75 359.6C133.57 361.36 131.13 362.4 130.13 360.88C127.66 357.09 125.03 353.35 122.76 349.44C120.86 346.13 118.78 343.2 118.97 339.29C119 338.55 119.81 338.3 120.37 338.62C123.8 340.54 125.2 344 126.99 347.38C129.1 351.35 130.86 355.52 132.75 359.6L132.75 359.6ZM123.74 194C124.79 193.06 126.03 194.64 125.13 195.62C120.33 200.84 116.12 205.73 109.2 208C102.32 210.25 95.57 210.24 88.8 213.38C77.55 218.61 68.65 229.03 55.5 229.32C55.11 229.33 55.1 228.72 55.46 228.65C69.84 225.82 77.93 215.5 89.62 207.9C93.04 205.68 96.2 204.48 100.2 203.8C110.36 202.08 115.85 201.11 123.74 194L123.74 194ZM48.27 231.98C49.36 231.19 50.69 232.67 49.65 233.6C47.82 235.23 46.68 237.23 44.6 238.56C42.59 239.83 40.37 240.85 38.15 241.7C34.93 242.94 30.1 245.23 27.01 242.81C26.55 242.45 26.35 241.76 26.72 241.25C28.78 238.52 32.75 238.65 35.79 237.61C37.98 236.86 40.01 235.89 42.06 234.82C44.05 233.79 46.46 233.28 48.27 231.98L48.27 231.98ZM113.63 199.42C114.55 199.21 115.02 200.63 114.15 201.01C107.24 203.97 102.25 201.88 95.65 198.84C84.15 193.55 74.87 194.43 62.81 193.42C62.29 193.38 62.07 192.57 62.61 192.36C69.56 189.64 77.22 190.7 84.43 192.17C93.6 194.04 104.07 201.66 113.63 199.42L113.63 199.42ZM73.04 218.6C74.9 218.98 74.75 221.94 72.81 221.62C67.77 220.79 60.42 219.77 57.15 215.39C56.77 214.87 57.11 214.18 57.76 214.19C60.1 214.23 62.13 215.19 64.3 216.01C67.17 217.09 70.03 217.98 73.04 218.6L73.04 218.6ZM82.55 192.57C83.05 192.97 82.82 193.87 82.12 193.8C80.04 193.59 78.82 194.13 76.92 193.01C75.42 192.11 74.35 190.86 73.38 189.41C71.84 187.14 70.61 183.65 72.14 181.13C72.37 180.74 73.02 180.62 73.38 180.91C75.2 182.36 76.09 184.74 77.55 186.56C78.36 187.57 79.32 188.42 80.18 189.39C80.99 190.31 81.62 191.83 82.55 192.57L82.55 192.57ZM85.03 212.83C86.2 211.92 87.94 213.35 87 214.62C83.27 219.68 83.37 227.3 80.97 233.05C79.55 236.44 76.7 242.56 72.25 241.99C71.61 241.91 71.26 241.33 71.43 240.72C72.13 238.17 74.37 236.45 75.29 233.86C76.21 231.25 76.55 228.45 77.26 225.77C78.74 220.14 80.43 216.43 85.03 212.83L85.03 212.83ZM109.6 268.4C110.61 268.32 110.87 269.64 109.9 269.94C106.07 271.13 102.6 273.12 99.02 274.9C95.64 276.58 93.21 279.14 90.04 281C89.44 281.35 88.56 280.6 88.89 279.96C90.47 276.81 94.1 274.07 96.99 272.11C100.84 269.5 105.01 268.77 109.6 268.4L109.6 268.4ZM219.78 270.94C219.9 269.26 222.54 269.05 222.77 270.77C224.15 281.45 223.61 288.78 219 298.72C214.66 308.1 209.23 317.16 203.88 325.98C203.46 326.67 202.49 325.96 202.87 325.28C212.58 307.9 218.26 290.93 219.78 270.94L219.78 270.94ZM253.69 346.28C256.22 348.46 253.3 352.81 250.69 350.61C246.78 347.32 242.91 343.89 239.4 340.17C236.13 336.7 233.83 331.58 231.57 327.39C231.37 327.02 231.86 326.79 232.12 327.02C234.34 329.05 236.37 331.16 238.86 332.85C240.37 333.88 241.72 334.75 243.01 336.04C246.5 339.56 249.94 343.04 253.69 346.28L253.69 346.28ZM227.24 323.57C227.34 323.76 227.04 323.9 226.93 323.71C226.3 322.64 225.66 321.56 225.02 320.49C224.84 320.18 225.36 319.92 225.53 320.24C226.1 321.35 226.67 322.46 227.24 323.57L227.24 323.57ZM247.18 375.98C248.53 377.77 245.81 380.06 244.54 378.24C242.16 374.82 239.94 371.39 237.75 367.86C235.89 364.86 233.12 362.1 232.12 358.68C232.04 358.39 232.42 358.19 232.64 358.34C235.57 360.34 237.27 363.84 239.54 366.53C242.17 369.64 244.72 372.72 247.18 375.98L247.18 375.98ZM225.1 346.03C225.67 344.38 228.38 344.92 228.14 346.69C226.7 357.21 223.43 367.03 215.29 374.19C214.86 374.57 214.24 374.09 214.4 373.57C217.35 364.15 221.9 355.38 225.1 346.03L225.1 346.03ZM350.03 378.69C350.41 379.35 349.36 380.04 348.92 379.42C343.59 371.95 338.41 364.66 333.47 356.89C328.1 348.47 321.47 340 317.94 330.61C317.8 330.25 318.22 329.97 318.49 330.25C324.84 336.62 329.31 345.05 334.19 352.56C339.78 361.17 344.92 369.81 350.03 378.69L350.03 378.69ZM301.98 366.73C302.1 367.07 301.6 367.31 301.48 366.98C298.59 358.45 295.7 349.93 292.81 341.41C292.77 341.27 292.97 341.17 293.01 341.31C296 349.78 298.99 358.26 301.98 366.73L301.98 366.73ZM288.73 330.54C288.75 330.61 288.64 330.63 288.62 330.56C284.36 314.7 276.84 301.46 266.45 288.85C265.86 288.12 266.95 287.18 267.56 287.9C277.85 300.13 284.82 315.07 288.73 330.54L288.73 330.54ZM356.07 308.21C357.51 308.85 356.69 311.18 355.24 310.53C332.37 300.36 306.52 301.68 282.04 299.77C280.74 299.67 280.9 297.72 282.19 297.76C306.86 298.52 333.13 297.96 356.07 308.21L356.07 308.21ZM361.42 336.51C362.88 336.85 362.27 339.09 360.88 339.01C351.18 338.43 341.66 338.44 332.06 340.19C330.41 340.49 329.99 338.09 331.57 337.65C341.41 334.94 351.45 334.23 361.42 336.51L361.42 336.51ZM320.17 267.86C320.87 268.51 319.76 269.73 319.05 269.1C310.46 261.43 301.24 255.3 291.47 249.28C289.92 248.33 291.52 246.06 293.06 246.98C302.79 252.78 311.8 260.22 320.17 267.86L320.17 267.86ZM335.62 235.12C336.01 234.92 336.29 235.51 335.92 235.72C330.61 238.7 325.2 242.52 319.5 244.65C319.17 244.77 318.81 244.33 319.14 244.09C324.06 240.44 330.2 237.98 335.62 235.12L335.62 235.12ZM360.87 267.2C361.86 267.81 360.83 269.27 359.85 268.68C354.58 265.52 349.2 262.59 343.65 259.97C339.31 257.92 334.59 256.46 330.5 253.95C329.96 253.62 330.28 252.6 330.94 252.73C341.33 254.77 351.93 261.71 360.87 267.2L360.87 267.2ZM366.59 245.44C367 245.04 367.62 245.75 367.17 246.12C366.42 246.75 365.67 247.38 364.92 248C364.59 248.28 364.18 247.79 364.49 247.49C365.19 246.81 365.89 246.12 366.59 245.44L366.59 245.44ZM321.45 155.44C322.85 156.05 322.11 158.05 320.65 157.66C296.97 151.32 273.66 145.21 249.29 142.29C244.95 141.77 245.61 134.83 249.81 135.58C274.22 139.92 298.72 145.58 321.45 155.44L321.45 155.44ZM286.08 82C286.49 81.29 287.7 81.92 287.36 82.66C281.9 94.63 275 106.06 265.42 115.16C262.1 118.32 258.24 121.1 255.72 125.02C253.83 127.95 252.94 131.52 251.03 134.42C249.26 137.11 247.84 138.51 244.85 139.78C243.46 140.37 242.44 138.3 243.82 137.66C250.25 134.67 250.04 128.1 252.59 122.85C254.6 118.74 257.55 115.64 260.75 112.49C270.41 103 279.22 93.78 286.08 82L286.08 82ZM322.92 92.18C323.53 91.41 324.65 92.02 324.4 92.94C321.66 103.18 316.25 111 309.44 119C307.61 121.16 304.02 118.82 305.76 116.45C311.66 108.43 316.72 99.97 322.92 92.18L322.92 92.18ZM233.01 61.06C234.23 59.8 235.9 61.85 234.76 63.1C222.35 76.8 216.43 94.11 206.33 109.32C195.34 125.86 176.72 140.95 172.47 161.18C172.03 163.32 168.96 162.31 169.76 160.6C178.63 141.68 189.65 127.13 201.49 110.01C212.66 93.87 219.21 75.36 233.01 61.06L233.01 61.06ZM180.18 89.22C179.95 88.55 180.94 88.05 181.19 88.73C183.25 94.47 184.91 100.28 186.57 106.14C188.29 112.19 191.94 117.71 190.9 124.17C190.65 125.73 188.47 126.37 187.72 124.77C185.2 119.45 186.64 114.51 185.77 108.93C184.74 102.29 182.34 95.54 180.18 89.22L180.18 89.22ZM245.83 83.48C246.88 82.97 247.61 84.54 246.61 85.1C240.37 88.61 234.08 92.18 227.67 95.4C222.84 97.84 217.21 100.95 211.71 101.03C211.04 101.03 210.87 100.14 211.29 99.75C215.48 95.81 222.06 93.95 227.33 91.8C233.62 89.23 239.75 86.5 245.83 83.48L245.83 83.48ZM348.55 121.3C349.25 121.43 349.2 122.46 348.47 122.42C340.59 121.91 333.33 119.87 326.49 115.9C324.81 114.93 326.54 112.41 328.21 113.42C334.5 117.19 341.33 119.97 348.55 121.3L348.55 121.3ZM248.76 196.97C249.22 197.82 247.94 198.38 247.45 197.61C245.74 194.95 241.72 191.72 242.42 188.34C242.48 188.09 242.68 187.92 242.95 188C244.48 188.46 244.86 188.84 245.58 190.31C246.68 192.53 247.56 194.78 248.76 196.97L248.76 196.97ZM181.44 268.04C181.37 268.04 181.36 268.16 181.43 268.16C181.51 268.17 181.52 268.05 181.44 268.04L181.44 268.04ZM182.8 269.85C183.41 270.41 182.45 271.46 181.84 270.92C179.6 268.97 176.97 267.13 175.23 264.7C174.89 264.22 175.4 263.68 175.9 263.96C178.5 265.42 180.62 267.83 182.8 269.85L182.8 269.85ZM180.25 275.19C180.29 275.71 179.54 276.08 179.3 275.5C178.2 272.8 176.8 270.95 174.85 268.85C174.48 268.46 174.95 267.72 175.46 267.96C178.28 269.3 180.03 272.09 180.25 275.19L180.25 275.19ZM181.39 259.45C181.7 259.85 181.1 260.36 180.79 259.96C178.01 256.24 175.22 252.51 172.43 248.78C172.21 248.5 172.63 248.13 172.85 248.42C175.7 252.1 178.54 255.77 181.39 259.45L181.39 259.45ZM115.13 280.7C115.37 279.52 117.25 279.63 117.02 280.84C113.85 297.9 109.43 315.49 100.58 330.58C100.35 330.98 99.76 330.63 99.89 330.22C105.24 313.68 111.52 297.79 115.13 280.7L115.13 280.7ZM104.54 300.52C104.86 299.72 106.13 300.18 105.8 300.98C104.13 305.05 102.66 309.27 100.62 313.17C100.37 313.65 99.69 313.22 99.83 312.76C101.06 308.59 102.93 304.56 104.54 300.52L104.54 300.52ZM194.78 324C195.08 323.19 196.31 323.64 196.04 324.46C194.58 328.83 193.22 333.33 192.49 337.89C191.84 341.92 192.48 346.07 192.47 350.15C192.46 353.49 186.8 353.03 187.33 349.75C188.03 345.51 189.71 341.66 190.72 337.51C191.83 332.92 193.12 328.44 194.78 324L194.78 324ZM194.23 346.92C194.68 345.68 196.67 346.44 196.12 347.6C195.19 349.59 194.25 351.57 193.32 353.56C192.93 354.39 191.62 353.96 191.95 353.06C192.71 351.01 193.47 348.97 194.23 346.92L194.23 346.92ZM289.66 362.18C290.64 364.16 287.75 365.46 286.64 363.65C279.08 351.3 270.61 339.08 266.38 325.03C266.15 324.24 267.27 323.82 267.75 324.37C277.42 335.45 283.23 349.17 289.66 362.18L289.66 362.18ZM205.12 67.91C205.05 67.91 205.04 68.02 205.11 68.03C205.19 68.04 205.2 67.92 205.12 67.91L205.12 67.91ZM250.89 97.02C251.03 96.85 251.29 97.03 251.17 97.21C245.2 106.08 240.2 117.31 232.64 124.87C232.09 125.43 231.1 124.72 231.39 124.01C235.5 114.2 244.43 105.38 250.89 97.02L250.89 97.02ZM236.18 105.56C236.48 105.15 237.08 105.57 236.82 106C234.15 110.38 231.48 114.77 228.8 119.15C226.47 122.97 224.36 127.37 221.04 130.43C220.34 131.07 219.2 130.25 219.53 129.38C221.11 125.16 224.39 121.54 227.05 117.93C230.09 113.81 233.14 109.68 236.18 105.56L236.18 105.56ZM224.1 114C224.41 113.61 225.03 114.02 224.74 114.44C222.23 118.09 219.94 122.46 216.71 125.51C216.29 125.91 215.45 125.39 215.73 124.83C217.76 120.86 221.29 117.44 224.1 114L224.1 114ZM211.72 123.3C212.11 122.77 212.96 123.39 212.55 123.87C211.73 124.82 210.92 125.77 210.11 126.72C209.79 127.1 209.15 126.68 209.46 126.27C210.22 125.28 210.97 124.29 211.72 123.3L211.72 123.3Z" />
</svg>