<svg version="1.2" baseProfile="tiny-ps" xmlns="http://www.w3.org/2000/svg" viewBox="0 0 244 245" width="244" height="245">
	<title>Vector Smart Object (Double Click to Edit)5</title>
	<style>
		tspan { white-space:pre }
		.shp0 { opacity: 0.502;fill: #e26241 } 
	</style>
	<path id="Vector Smart Object (Double Click to Edit)" class="shp0" d="M122.65 113.13C114.16 95.36 109.96 76.89 109.37 57.22C109.15 49.98 109.03 42.74 108.89 35.5C108.98 31.36 109.04 27.21 109.05 23.07C107.81 19.34 108.69 16.28 111.68 13.87C118.07 31.3 123.42 49.84 123.76 68.46C124.02 82.27 121.34 96.41 120.71 110.23C120.69 110.74 121.45 110.73 121.49 110.23C122.8 93.93 124.84 77.52 124.43 61.14C123.97 42.72 116.54 24.13 110.03 7.2C109.91 6.89 109.38 6.79 109.3 7.2C102.89 41.57 107.05 81.84 122.56 113.18C122.59 113.24 122.67 113.19 122.65 113.13L122.65 113.13ZM121.62 104.21C121.61 104.28 121.52 104.28 121.52 104.21C122.39 93.91 119.76 81.81 119.54 71.26C119.27 58.71 117.63 46.5 115.84 34.09C115.81 33.9 116.09 33.82 116.12 34.01C118.17 46.41 119.68 58.68 119.92 71.26C120.12 82.14 122.61 93.45 121.62 104.21L121.62 104.21ZM113.17 30.69C113.23 30.69 113.23 30.58 113.17 30.58C113.1 30.58 113.1 30.69 113.17 30.69L113.17 30.69ZM111.8 23.13C111.85 23.31 111.57 23.39 111.52 23.21C110.72 20.13 109.35 17.26 108.34 14.26C108.26 14.02 108.64 13.91 108.71 14.15C109.7 17.17 111.03 20.05 111.8 23.13L111.8 23.13ZM117.29 111.5C111.68 97.54 104.01 84.32 100.36 69.71C96.15 52.82 96.8 38.75 101.72 22.14C101.94 21.41 100.85 21.14 100.59 21.83C87.91 55.12 101.06 82.19 116.93 111.65C117.03 111.84 117.37 111.71 117.29 111.5L117.29 111.5ZM106.99 0.66C106.69 0.72 106.63 0.28 106.93 0.25C117.59 -0.76 125.21 24.44 127.47 31.98C135.59 59.05 133.23 85.24 125.47 112.23C124.98 113.92 122.4 113.21 122.84 111.5C128.79 88.07 132.03 63.3 124.53 39.82C122.74 34.21 114.65 -1 106.99 0.66L106.99 0.66ZM96.51 31.61C96.42 32.11 95.68 31.89 95.76 31.41C96.65 25.65 98.93 20.32 100.21 14.67C101.29 9.88 102.14 5.48 105.04 1.42C105.47 0.82 106.45 1.36 106.05 2.01C103.27 6.57 102.58 11.68 101 16.67C99.42 21.65 97.46 26.46 96.51 31.61L96.51 31.61ZM110.06 88.11C110.13 88.21 109.96 88.31 109.89 88.21C105.81 82.06 104.28 74.35 103.14 67.18C103.12 67.06 103.3 67 103.32 67.13C104.47 74.28 106 81.99 110.06 88.11L110.06 88.11ZM102.3 63.11C102.31 63.17 102.21 63.17 102.2 63.11C102.14 61.83 102.08 60.56 101.97 59.29C101.96 59.23 102.06 59.23 102.06 59.29C102.18 60.56 102.24 61.83 102.3 63.11L102.3 63.11ZM99.85 52.62C99.87 52.74 99.7 52.79 99.66 52.67C99.38 51.76 99.33 51.07 99.54 50.15C99.59 49.9 99.99 50.01 99.91 50.25C99.62 51.03 99.59 51.82 99.85 52.62L99.85 52.62ZM98.86 38.48C98.86 38.79 98.38 38.79 98.37 38.48C98.34 36.74 98.61 35.19 99.43 33.65C99.57 33.37 100 33.61 99.85 33.89C99.07 35.36 98.83 36.83 98.86 38.48L98.86 38.48ZM100.94 67.92C100.97 68.42 100.2 68.41 100.15 67.92C99.21 58.08 93.72 47.84 97.49 38.06C97.76 37.37 98.83 37.63 98.62 38.37C95.8 48.33 100.29 57.99 100.94 67.92L100.94 67.92ZM121.97 100.03C121.88 100.27 121.51 100.17 121.6 99.93C123.85 93.68 121.68 86.55 124.54 80.51C124.66 80.26 125.08 80.44 124.98 80.7C122.69 86.96 124.3 93.79 121.97 100.03L121.97 100.03ZM125.61 119.29C132.46 101 143.2 84.92 157.02 71.13C162.49 65.67 167.96 60.2 173.5 54.81C176.35 52.04 194.81 33.64 188.14 46.65C179.99 62.56 170.48 79.06 156.9 90.89C147 99.52 135.93 106.92 126.36 115.9C125.99 116.25 126.54 116.78 126.92 116.45C139.21 105.67 153.21 96.6 164.56 84.74C177.41 71.32 185.9 53.71 193.76 37.14C193.91 36.82 193.59 36.4 193.25 36.63C164 55.6 137.41 86.48 125.51 119.26C125.49 119.32 125.59 119.35 125.61 119.29L125.61 119.29ZM131.36 112.41C131.31 112.45 131.26 112.36 131.31 112.32C136.02 108.81 138.42 103.77 142.33 99.63C146.23 95.48 150.42 91.55 154.48 87.54C163.2 78.91 170.66 69.45 178.28 59.86C178.38 59.73 178.61 59.9 178.51 60.03C170.4 70.83 161.8 80.9 152.17 90.36C145.11 97.3 139.29 106.59 131.36 112.41L131.36 112.41ZM180.71 57C180.77 57 180.77 56.9 180.71 56.9C180.64 56.9 180.64 57 180.71 57L180.71 57ZM185.21 50.79C185.11 50.95 184.86 50.8 184.96 50.64C186.64 47.94 187.78 44.97 189.26 42.17C189.38 41.94 189.71 42.14 189.59 42.36C188.09 45.15 186.92 48.11 185.21 50.79L185.21 50.79ZM123.1 114.29C128.83 101.84 132.7 88.02 139.74 76.33C149.45 60.23 160.46 49.97 177.21 41.42C177.79 41.13 177.37 40.1 176.75 40.35C143.63 54.23 133.29 82.21 122.74 114.14C122.67 114.34 123 114.49 123.1 114.29L123.1 114.29ZM196.41 30.44C196.16 30.28 196.43 29.91 196.66 30.11C205.62 37.62 189.58 64.01 185.33 71.14C172 93.46 151.29 109.16 128.25 120.69C126.69 121.47 125.32 119.17 126.88 118.33C146.87 107.54 167.01 92.96 178.51 72.91C181.55 67.6 203.14 34.51 196.41 30.44L196.41 30.44ZM168.53 45.56C168.1 45.84 167.73 45.18 168.14 44.89C172.92 41.56 178.36 39.55 183.34 36.58C187.56 34.06 191.34 31.63 196.27 30.94C197 30.84 197.34 31.9 196.59 32.07C191.36 33.2 187.19 36.21 182.47 38.51C177.76 40.79 172.93 42.7 168.53 45.56L168.53 45.56ZM135.09 92.94C135.06 93.06 134.87 93.01 134.9 92.89C136.53 85.7 141.08 79.27 145.49 73.5C145.57 73.4 145.74 73.5 145.66 73.6C141.27 79.35 136.71 85.78 135.09 92.94L135.09 92.94ZM147.87 70.09C147.83 70.14 147.76 70.07 147.81 70.02C148.69 69.1 149.56 68.18 150.41 67.22C150.45 67.17 150.52 67.24 150.48 67.29C149.63 68.25 148.76 69.17 147.87 70.09L147.87 70.09ZM155.58 62.46C155.51 62.57 155.35 62.47 155.41 62.36C155.86 61.56 156.36 61.02 157.15 60.54C157.37 60.41 157.57 60.76 157.35 60.88C156.59 61.18 156 61.71 155.58 62.46L155.58 62.46ZM165.16 51.99C164.94 52.22 164.59 51.87 164.82 51.65C166.04 50.43 167.37 49.54 169.04 49.08C169.35 49 169.48 49.47 169.17 49.55C167.58 49.99 166.32 50.84 165.16 51.99L165.16 51.99ZM143.45 72.41C143.1 72.78 142.56 72.23 142.9 71.86C149.45 64.46 153.02 53.15 162.85 49.29C163.47 49.05 163.89 50.07 163.3 50.36C154.04 55.01 150.24 65.2 143.45 72.41L143.45 72.41ZM136.39 111.17C136.19 111.25 136.04 110.9 136.24 110.81C142.35 108.2 145.98 101.55 152.35 99.55C152.61 99.47 152.8 99.89 152.54 100C146.38 102.62 142.57 108.6 136.39 111.17L136.39 111.17ZM130.72 122.9C148.51 114.43 167 110.22 186.7 109.64C193.95 109.42 201.2 109.3 208.45 109.16C212.6 109.25 216.75 109.31 220.9 109.32C224.63 108.09 227.7 108.96 230.11 111.94C212.65 118.32 194.09 123.67 175.45 124.01C161.61 124.27 147.46 121.6 133.62 120.96C133.11 120.94 133.12 121.7 133.62 121.74C149.94 123.05 166.37 125.09 182.77 124.68C201.22 124.22 219.83 116.8 236.79 110.3C237.1 110.18 237.19 109.65 236.79 109.57C202.38 103.16 162.05 107.32 130.67 122.81C130.61 122.84 130.66 122.93 130.72 122.9L130.72 122.9ZM139.65 121.87C139.58 121.87 139.58 121.77 139.65 121.77C149.96 122.64 162.08 120.02 172.64 119.79C185.2 119.53 197.43 117.89 209.86 116.1C210.05 116.07 210.13 116.35 209.94 116.38C197.52 118.43 185.24 119.93 172.64 120.17C161.74 120.38 150.42 122.87 139.65 121.87L139.65 121.87ZM213.66 115.71C213.73 115.71 213.73 115.61 213.66 115.61C213.6 115.61 213.6 115.71 213.66 115.71L213.66 115.71ZM221.18 114.3C221 114.35 220.92 114.07 221.1 114.02C224.18 113.22 227.05 111.85 230.06 110.84C230.3 110.76 230.41 111.14 230.17 111.21C227.15 112.19 224.26 113.53 221.18 114.3L221.18 114.3ZM132.35 117.55C146.33 111.95 159.56 104.29 174.2 100.64C191.11 96.43 205.19 97.08 221.82 102C222.56 102.22 222.82 101.13 222.13 100.87C188.8 88.21 161.7 101.34 132.2 117.19C132.01 117.29 132.14 117.63 132.35 117.55L132.35 117.55ZM243.34 107.26C243.27 106.97 243.72 106.9 243.75 107.21C244.76 117.85 219.52 125.46 211.97 127.71C184.87 135.82 158.64 133.47 131.62 125.72C129.93 125.23 130.64 122.65 132.35 123.09C155.81 129.03 180.61 132.27 204.13 124.78C209.74 123 245 114.91 243.34 107.26L243.34 107.26ZM212.68 99.03C212.18 98.94 212.4 98.2 212.89 98.28C218.66 99.16 223.99 101.44 229.65 102.72C234.45 103.8 238.86 104.65 242.91 107.54C243.52 107.97 242.98 108.95 242.32 108.55C237.76 105.78 232.64 105.09 227.64 103.51C222.66 101.93 217.84 99.98 212.68 99.03L212.68 99.03ZM155.77 110.33C155.67 110.4 155.57 110.23 155.67 110.16C161.83 106.09 169.55 104.56 176.73 103.41C176.85 103.39 176.9 103.58 176.78 103.6C169.62 104.74 161.9 106.27 155.77 110.33L155.77 110.33ZM180.81 102.58C180.74 102.58 180.74 102.49 180.81 102.48C182.08 102.42 183.35 102.36 184.62 102.25C184.69 102.24 184.69 102.34 184.62 102.34C183.35 102.45 182.08 102.52 180.81 102.58L180.81 102.58ZM191.65 102.36C191.53 102.39 191.48 102.21 191.6 102.17C192.51 101.89 193.2 101.85 194.13 102.05C194.37 102.1 194.26 102.5 194.02 102.42C193.24 102.13 192.45 102.1 191.65 102.36L191.65 102.36ZM205.81 101.37C205.5 101.38 205.5 100.89 205.81 100.88C207.55 100.85 209.1 101.12 210.65 101.94C210.93 102.09 210.68 102.51 210.4 102.36C208.93 101.58 207.46 101.34 205.81 101.37L205.81 101.37ZM175.99 101.22C175.48 101.25 175.49 100.48 175.99 100.44C185.84 99.5 196.09 94.01 205.89 97.78C206.58 98.04 206.32 99.11 205.58 98.9C195.6 96.09 185.93 100.57 175.99 101.22L175.99 101.22ZM144.17 124.45C143.94 124.37 144.04 123.99 144.28 124.08C150.54 126.33 157.68 124.16 163.73 127.02C163.98 127.13 163.8 127.56 163.54 127.46C157.26 125.17 150.43 126.78 144.17 124.45L144.17 124.45ZM124.9 128.09C143.21 134.93 159.3 145.66 173.11 159.46C178.58 164.92 184.06 170.38 189.45 175.91C192.23 178.76 210.65 197.2 197.63 190.54C181.7 182.39 165.18 172.9 153.33 159.34C144.69 149.45 137.28 138.39 128.29 128.84C127.94 128.47 127.41 129.02 127.74 129.39C138.53 141.67 147.61 155.65 159.49 166.99C172.93 179.82 190.56 188.3 207.15 196.15C207.47 196.3 207.89 195.98 207.67 195.64C188.66 166.43 157.75 139.88 124.93 127.99C124.86 127.96 124.84 128.06 124.9 128.09L124.9 128.09ZM131.78 133.83C131.75 133.78 131.83 133.73 131.87 133.78C135.39 138.48 140.43 140.88 144.58 144.78C148.73 148.69 152.67 152.87 156.68 156.92C165.32 165.63 174.8 173.08 184.41 180.69C184.54 180.79 184.36 181.02 184.23 180.92C173.42 172.82 163.34 164.23 153.86 154.61C146.91 147.56 137.61 141.75 131.78 133.83L131.78 133.83ZM129.9 125.58C142.37 131.3 156.2 135.16 167.91 142.2C184.03 151.9 194.3 162.9 202.86 179.62C203.16 180.2 204.19 179.78 203.93 179.17C190.04 146.09 162.02 135.76 130.05 125.22C129.85 125.15 129.7 125.48 129.9 125.58L129.9 125.58ZM213.86 198.8C214.02 198.54 214.39 198.82 214.19 199.05C206.67 207.99 180.24 191.98 173.11 187.73C150.75 174.42 135.04 153.73 123.5 130.73C122.71 129.17 125.01 127.79 125.86 129.35C136.66 149.32 151.26 169.43 171.34 180.91C176.65 183.95 209.78 205.52 213.86 198.8L213.86 198.8ZM198.71 170.95C198.44 170.53 199.11 170.15 199.39 170.56C202.72 175.34 204.74 180.77 207.71 185.74C210.23 189.95 212.66 193.73 213.36 198.66C213.46 199.38 212.39 199.73 212.23 198.97C211.1 193.75 208.08 189.58 205.78 184.87C203.49 180.17 201.58 175.34 198.71 170.95L198.71 170.95ZM151.28 137.55C151.16 137.52 151.21 137.34 151.33 137.36C158.53 138.99 164.97 143.54 170.74 147.94C170.84 148.02 170.74 148.19 170.64 148.11C164.89 143.72 158.44 139.17 151.28 137.55L151.28 137.55ZM174.16 150.32C174.11 150.28 174.18 150.21 174.23 150.25C175.15 151.13 176.07 152.01 177.03 152.85C177.08 152.89 177.01 152.96 176.96 152.92C176 152.08 175.08 151.2 174.16 150.32L174.16 150.32ZM181.8 158.02C181.69 157.95 181.78 157.79 181.89 157.85C182.69 158.3 183.24 158.8 183.72 159.59C183.85 159.8 183.5 160.01 183.38 159.78C183.08 159.02 182.55 158.44 181.8 158.02L181.8 158.02ZM192.28 167.59C192.05 167.36 192.4 167.02 192.62 167.24C193.84 168.46 194.73 169.79 195.19 171.46C195.27 171.77 194.8 171.9 194.72 171.59C194.28 170 193.44 168.75 192.28 167.59L192.28 167.59ZM171.83 145.9C171.46 145.56 172.01 145.02 172.39 145.35C179.79 151.9 191.12 155.46 194.98 165.28C195.22 165.9 194.21 166.32 193.91 165.73C189.25 156.48 179.06 152.69 171.83 145.9L171.83 145.9ZM133.03 138.85C132.94 138.65 133.3 138.5 133.38 138.7C136 144.8 142.66 148.43 144.66 154.8C144.74 155.06 144.32 155.24 144.21 154.99C141.59 148.83 135.59 145.02 133.03 138.85L133.03 138.85ZM121.4 132.09C129.46 147.79 133.86 163.87 135.89 181.34C136.68 188.16 136.6 195.19 137 202.05C137.32 206.88 137.47 211.71 137.43 216.54C138.39 221.61 137.64 226.43 135.17 231.01C128.29 213.75 122.42 195.44 121.55 176.78C120.91 162.98 123.18 148.76 123.42 134.94C123.43 134.43 122.67 134.44 122.64 134.94C121.79 151.25 120.21 167.74 121.08 184.09C122.06 202.48 130.02 220.87 137 237.61C137.17 238.01 137.68 237.94 137.74 237.51C142.42 202.53 138.12 163.38 121.49 132.04C121.46 131.98 121.37 132.03 121.4 132.09L121.4 132.09ZM122.68 140.97C122.69 140.91 122.78 140.9 122.78 140.97C122.21 151.29 125.17 163.32 125.69 173.86C126.31 186.38 128.3 198.57 130.44 210.91C130.47 211.09 130.19 211.17 130.16 210.99C127.75 198.63 125.91 186.44 125.31 173.86C124.8 162.99 121.99 151.75 122.68 140.97L122.68 140.97ZM126.83 133.61C132.81 147.37 140.84 160.36 144.9 174.83C149.59 191.6 149.35 205.68 144.89 222.43C144.7 223.17 145.78 223.45 146.02 222.74C157.76 189.1 143.86 162.42 127.16 133.41C127.03 133.19 126.73 133.38 126.83 133.61L126.83 133.61ZM140.23 244.07C140.52 244 140.59 244.44 140.29 244.48C129.75 245.78 121.27 220.59 118.85 213.27C110 186.55 111.66 160.1 118.62 133.03C119.06 131.32 121.63 132.05 121.25 133.76C115.97 157.31 113.47 182.3 121.6 205.49C123.64 211.3 132.42 246 140.23 244.07L140.23 244.07ZM134.69 156.74C134.61 156.64 134.78 156.54 134.85 156.64C139.11 162.67 140.86 170.34 142.2 177.47C142.23 177.59 142.04 177.65 142.02 177.52C140.67 170.4 138.92 162.75 134.69 156.74L134.69 156.74ZM144.38 176.66C144.33 176.15 145.1 176.17 145.16 176.66C146.38 186.47 152.16 196.54 148.66 206.44C148.41 207.14 147.35 206.87 147.53 206.13C150.07 196.09 145.31 186.56 144.38 176.66L144.38 176.66ZM122.45 145.15C122.53 144.92 122.9 145.02 122.83 145.26C120.74 151.57 123.12 158.63 120.43 164.75C120.32 165.01 119.9 164.82 119.98 164.57C122.1 158.24 120.3 151.46 122.45 145.15L122.45 145.15ZM118.27 126.01C111.93 144.49 101.66 160.85 88.24 175.02C82.92 180.63 77.61 186.26 72.23 191.8C69.45 194.65 51.51 213.58 57.8 200.39C65.5 184.26 74.54 167.5 87.78 155.28C97.43 146.39 108.3 138.67 117.6 129.43C117.96 129.07 117.42 128.54 117.05 128.88C105.07 140 91.33 149.46 80.32 161.63C67.85 175.42 59.86 193.24 52.47 210.04C52.33 210.35 52.63 210.79 52.98 210.55C81.68 190.76 107.39 159.15 118.37 126.04C118.39 125.98 118.29 125.95 118.27 126.01L118.27 126.01ZM112.71 133.06C112.76 133.02 112.83 133.09 112.78 133.13C105.46 138.91 99.32 148.99 92.79 155.92C83.54 165.75 75.4 176.07 67.32 186.88C67.21 187.03 66.95 186.89 67.06 186.73C74.14 176.73 81.55 167.15 90.03 158.29C95.32 152.76 100.9 147.57 105.34 141.31C107.54 138.22 109.68 135.41 112.71 133.06L112.71 133.06ZM120.92 130.94C115.53 143.58 112.11 157.39 105.37 169.32C96.05 185.82 85.61 196.16 68.9 205.29C68.23 205.66 68.82 206.6 69.49 206.3C102.11 191.55 111.68 163.16 121.28 131.09C121.34 130.88 121.01 130.73 120.92 130.94L120.92 130.94ZM50.01 216.82C50.26 216.97 50 217.34 49.75 217.15C40.58 209.89 55.91 183.01 59.97 175.76C72.64 153.1 92.95 136.82 115.62 124.67C117.17 123.84 118.53 126.15 117 127.03C97.3 138.39 77.6 153.54 66.67 173.92C63.78 179.31 43.16 212.93 50.01 216.82L50.01 216.82ZM109.54 152.62C109.56 152.49 109.75 152.55 109.73 152.67C108.29 159.9 103.93 166.45 99.68 172.34C99.61 172.44 99.44 172.35 99.51 172.24C103.75 166.37 108.1 159.82 109.54 152.62L109.54 152.62ZM97.4 175.82C97.44 175.77 97.51 175.84 97.47 175.89C96.61 176.83 95.76 177.78 94.95 178.76C94.91 178.81 94.84 178.74 94.88 178.69C95.7 177.71 96.55 176.76 97.4 175.82L97.4 175.82ZM89.92 183.66C89.98 183.55 90.14 183.64 90.08 183.76C89.64 184.6 89.19 185.12 88.39 185.63C88.18 185.76 87.97 185.41 88.2 185.29C88.96 184.95 89.53 184.4 89.92 183.66L89.92 183.66ZM101.77 173.37C102.1 172.99 102.64 173.54 102.32 173.92C96.03 181.44 92.77 192.87 83.14 196.97C82.47 197.26 81.87 196.33 82.55 195.96C91.66 191.04 95.19 180.77 101.77 173.37L101.77 173.37ZM107.68 134.45C107.91 134.35 108.11 134.68 107.88 134.79C101.84 137.56 98.4 144.33 92.08 146.49C91.82 146.58 91.64 146.16 91.9 146.05C97.97 143.27 101.59 137.17 107.68 134.45L107.68 134.45ZM113.06 122.55C97.33 130.59 81.23 134.99 63.74 137.02C56.91 137.81 49.87 137.72 43 138.13C38.17 138.45 33.34 138.59 28.5 138.55C23.42 139.51 18.59 138.76 14.01 136.3C31.29 129.42 49.62 123.56 68.31 122.69C82.13 122.05 96.36 124.32 110.21 124.56C110.71 124.57 110.71 123.81 110.21 123.78C93.87 122.94 77.36 121.36 60.99 122.23C42.58 123.21 24.16 131.15 7.4 138.13C6.99 138.29 7.07 138.81 7.5 138.86C42.53 143.54 81.72 139.24 113.11 122.64C113.17 122.61 113.12 122.52 113.06 122.55L113.06 122.55ZM111.54 127.96C97.76 133.94 84.75 141.96 70.26 146.01C53.47 150.7 39.37 150.46 22.6 146.01C21.86 145.81 21.58 146.89 22.29 147.14C55.97 158.86 82.69 144.97 111.73 128.3C111.96 128.17 111.76 127.87 111.54 127.96L111.54 127.96ZM0.93 141.35C1 141.64 0.56 141.71 0.52 141.41C-0.78 130.89 24.44 122.42 31.77 120C58.53 111.16 85.01 112.81 112.11 119.76C113.83 120.2 113.1 122.78 111.39 122.4C87.81 117.12 62.78 114.63 39.56 122.75C33.74 124.78 -1 133.55 0.93 141.35L0.93 141.35ZM88.37 135.81C88.48 135.74 88.57 135.91 88.47 135.98C82.44 140.23 74.75 141.98 67.62 143.32C67.49 143.34 67.44 143.16 67.56 143.13C74.69 141.79 82.36 140.05 88.37 135.81L88.37 135.81ZM99.57 121.37C99.81 121.45 99.71 121.83 99.47 121.75C93.14 119.67 86.07 122.04 79.94 119.36C79.69 119.25 79.87 118.82 80.13 118.91C86.46 121.03 93.26 119.23 99.57 121.37L99.57 121.37ZM118.73 117.2C100.23 110.87 83.85 100.61 69.66 87.21C64.04 81.9 58.41 76.6 52.86 71.22C50 68.45 31.05 50.52 44.26 56.81C60.41 64.5 77.2 73.53 89.42 86.75C98.33 96.39 106.06 107.24 115.31 116.53C115.67 116.89 116.21 116.35 115.86 115.98C104.73 104.01 95.26 90.29 83.07 79.29C69.26 66.84 51.42 58.87 34.6 51.48C34.29 51.35 33.85 51.65 34.09 51.99C53.9 80.66 85.56 106.34 118.7 117.3C118.77 117.32 118.8 117.22 118.73 117.2L118.73 117.2ZM111.68 111.64C111.72 111.69 111.65 111.76 111.61 111.71C105.82 104.41 95.73 98.27 88.79 91.75C78.94 82.51 68.61 74.39 57.79 66.31C57.64 66.2 57.78 65.95 57.94 66.06C67.95 73.13 77.54 80.53 86.41 89C91.95 94.28 97.15 99.85 103.41 104.29C106.51 106.49 109.32 108.62 111.68 111.64L111.68 111.64ZM113.8 119.85C101.15 114.46 87.32 111.05 75.37 104.31C58.85 95 48.5 84.58 39.35 67.9C38.98 67.22 38.04 67.81 38.34 68.49C53.11 101.06 81.54 110.61 113.65 120.21C113.86 120.27 114.01 119.94 113.8 119.85L113.8 119.85ZM27.81 49.02C27.66 49.28 27.29 49.01 27.48 48.77C34.75 39.61 61.66 54.92 68.92 58.97C91.61 71.63 107.91 91.92 120.08 114.55C120.91 116.1 118.6 117.46 117.72 115.93C106.34 96.25 91.17 76.59 70.76 65.66C65.37 62.78 31.7 42.18 27.81 49.02L27.81 49.02ZM92.09 108.48C92.22 108.5 92.17 108.69 92.04 108.67C84.8 107.23 78.24 102.88 72.34 98.64C72.24 98.56 72.34 98.4 72.44 98.47C78.32 102.7 84.88 107.05 92.09 108.48L92.09 108.48ZM110.29 106.62C110.39 106.85 110.05 107.05 109.95 106.82C107.17 100.79 100.39 97.36 98.23 91.05C98.14 90.79 98.56 90.61 98.67 90.86C101.45 96.93 107.56 100.54 110.29 106.62L110.29 106.62ZM29.69 47.11C29.85 46.45 30.82 46.62 30.84 47.26C31.01 52.72 35.21 56.76 37.56 61.42C39.26 64.8 40.73 68.02 41.81 71.63C42.03 72.37 41.04 72.97 40.51 72.39C37.01 68.52 34.11 63.46 31.64 58.87C29.66 55.19 28.71 51.21 29.69 47.11L29.69 47.11ZM15.3 145.98C15.03 145.94 15.15 145.49 15.41 145.58C17 146.15 19.18 146.09 20.83 145.86C22.84 145.58 22.59 148.58 20.83 148.11C18.95 147.61 17.19 146.3 15.3 145.98L15.3 145.98ZM7.11 142.54C7.06 142.51 7.11 142.43 7.16 142.46C10.86 144.44 14.74 144.83 18.83 145.35C19.18 145.4 19.11 145.89 18.76 145.83C14.68 145.17 10.75 144.65 7.11 142.54L7.11 142.54ZM49.28 215.03C48.87 214.75 49.22 214.11 49.67 214.36C53.33 216.34 57.1 211.94 59.94 210.27C63.25 208.32 66.22 206.07 69.88 204.78C71.33 204.26 71.85 206.46 70.5 207.03C65.82 209 61.47 212.09 56.91 214.39C54.42 215.65 51.78 216.8 49.28 215.03L49.28 215.03ZM138.91 243.51C138.11 243.14 138.7 241.75 139.52 242.08C142.05 243.12 142.11 234.92 142.26 233.45C142.7 229.07 144.4 224.41 145.79 220.25C146 219.6 146.87 219.76 146.94 220.4C147.38 224.55 145.61 227.86 144.64 231.81C144.06 234.15 143.98 236.54 143.51 238.89C143.02 241.3 142.05 244.93 138.91 243.51L138.91 243.51Z" />
</svg>