<svg version="1.2" baseProfile="tiny-ps" xmlns="http://www.w3.org/2000/svg" viewBox="0 0 211 187" width="211" height="187">
	<title>Vector Smart Object (Double Click to Edit)4</title>
	<style>
		tspan { white-space:pre }
		.shp0 { opacity: 0.502;fill: #e26241 } 
	</style>
	<path id="Vector Smart Object (Double Click to Edit)" class="shp0" d="M0.54 1.95C-0.71 1.35 0.38 -0.44 1.61 0.11C19.03 7.82 33.05 21.11 42.56 37.74C53.48 56.82 50.56 79.08 55.05 99.89C66.86 154.69 122.53 183.45 175.72 180.22C223.24 177.33 203.71 121.1 190.09 93.78C176.94 67.4 157.86 42.46 127.6 36.2C103.56 31.22 80.45 41.17 56.89 37.32C38.28 34.27 20.78 21.58 8.11 8.18C7.16 7.18 8.41 5.41 9.63 6.22C25.24 16.57 38.3 29.72 57.52 32.97C73.1 35.61 88.46 30.35 104.08 29.79C127.32 28.96 149.48 35.68 166.42 52.03C184.96 69.92 196.82 95.61 204.07 119.97C209.14 137.01 217.87 162.38 201.53 176.01C185.29 189.55 156.15 185.17 137.35 181.12C114.04 176.1 91.14 164.42 74.95 146.68C59.13 129.36 54.68 109.82 51.83 87.25C47.13 50.17 36.32 18.9 0.54 1.95L0.54 1.95ZM57.22 46.22C57.2 46.2 57.23 46.16 57.26 46.18C78.32 62.33 99.48 77.93 119.87 95.04C139.59 111.59 163.48 127.24 178.4 148.46C178.65 148.82 178.17 149.24 177.82 149.04C156.17 136.64 138.91 116.13 120.07 99.91C99.23 81.96 78.57 63.51 57.22 46.22L57.22 46.22ZM182.26 151.02C182.21 150.97 182.28 150.9 182.33 150.95C183.02 151.62 183.77 152.38 184.6 152.87C185.8 153.59 186.44 153.44 187.66 153.52C188.89 153.61 190.15 153.99 190.74 155.13C190.98 155.58 190.87 156.19 190.4 156.44C188.91 157.25 187.43 156.41 186.42 155.23C185.11 153.71 183.62 152.47 182.26 151.02L182.26 151.02ZM70.08 52.03C70.05 52.01 70.08 51.96 70.11 51.98C90.42 62.65 113.76 55.85 135.57 57.74C143.53 58.43 155.9 58.61 158.51 67.49C158.73 68.27 157.8 68.65 157.26 68.22C141.55 55.66 118.91 61.23 100.53 60.38C89.53 59.87 79.8 57.21 70.08 52.03L70.08 52.03ZM50.49 39.68C50.18 39.4 50.63 38.95 50.94 39.22C72.43 58.16 82.35 83.51 78.96 112.11C78.94 112.27 78.68 112.28 78.69 112.11C81 85.19 70.52 57.92 50.49 39.68L50.49 39.68ZM96.2 75.28C96.07 75.17 96.26 74.99 96.39 75.09C118.04 92.93 129.72 119.38 122.07 147.03C122.02 147.22 121.68 147.19 121.7 146.98C124.64 120.37 117.04 92.95 96.2 75.28L96.2 75.28ZM104.24 83.66C103.86 83.38 104.22 82.73 104.62 83.02C116.85 91.82 127.51 103.1 143.21 104.96C155.45 106.42 166.64 100.36 178.87 102.59C180.34 102.85 179.96 105.18 178.52 105.15C164.86 104.84 151.22 111.61 137.73 106.87C125.22 102.47 114.67 91.36 104.24 83.66L104.24 83.66ZM155.77 128.84C155.14 127.49 157.12 126.3 157.79 127.66C161.12 134.43 164.64 144.97 161 152.22C160.74 152.73 159.84 152.63 159.73 152.05C159.12 148.8 159.62 145.48 159.36 142.19C159.01 137.53 157.71 133.07 155.77 128.84L155.77 128.84ZM34.51 26.83C34.4 26.53 34.84 26.29 35.05 26.52C45.8 38.55 58.58 47.56 66.56 61.97C66.73 62.27 66.28 62.53 66.1 62.24C57.29 48.48 40.55 42.87 34.51 26.83L34.51 26.83ZM38.55 34.38C44.3 45.76 50.82 56.3 55.23 68.38C59.11 78.99 59.19 89.48 61.25 100.56C64.57 118.45 73.56 132.29 86.53 144.82C108.82 166.37 145.26 185.65 177.04 178.09C178.63 177.71 178.3 175.15 176.65 175.21C156.57 175.9 138.04 175.52 119.77 165.77C102.01 156.28 84.48 142.24 73.39 125.27C54.78 96.78 67.28 57.4 38.89 34.12C38.7 33.97 38.44 34.16 38.55 34.38L38.55 34.38ZM50.27 58.47C50.24 58.17 50.75 58.11 50.79 58.4C55.59 89.56 63.25 125.75 86.51 148.58C108.81 170.47 139.76 178.59 168.86 186.74C169.03 186.78 168.96 187.03 168.79 186.99C138.51 179.52 105.72 170.64 82.51 148.71C56.87 124.49 53.96 91.51 50.27 58.47L50.27 58.47ZM52.65 38.59C52.59 38.57 52.61 38.47 52.68 38.49C74.38 43.4 99.67 39.87 121.78 39.42C121.82 39.42 121.82 39.48 121.78 39.48C99.69 39.86 74.28 44.17 52.65 38.59L52.65 38.59ZM141.57 40.57C141.27 40.48 141.39 40.03 141.69 40.11C148.9 41.95 158.82 44.53 163.38 50.96C163.9 51.69 162.92 52.41 162.25 52.09C158.93 50.48 156.05 47.78 152.93 45.78C149.32 43.45 145.71 41.75 141.57 40.57L141.57 40.57ZM107.48 37.95C107.1 37.84 107.17 37.26 107.57 37.27C126.99 37.78 144.18 46.45 160.59 56.3C160.68 56.36 160.6 56.49 160.51 56.44C143.78 46.96 125.77 43.18 107.48 37.95L107.48 37.95ZM179.58 75.2C179.56 75.17 179.61 75.14 179.63 75.17C185.43 83.98 190.36 93.31 193.11 103.54C193.17 103.77 192.83 103.86 192.75 103.64C189.41 93.62 185.46 84.02 179.58 75.2L179.58 75.2ZM84.47 61.46C84.26 60.97 84.72 60.3 85.27 60.66C93.45 65.94 99.71 73.97 107.54 79.77C114.63 85.04 122.82 90 128.66 96.66C128.87 96.9 128.56 97.18 128.32 97C119.77 90.36 111.63 83.68 102.38 77.95C95.45 73.67 87.8 69.31 84.47 61.46L84.47 61.46ZM96.77 67.19C96.44 66.88 96.92 66.41 97.26 66.7C102.97 71.57 108.86 76.23 114.98 80.58C119.84 84.04 125.22 86.98 129.71 90.91C130.01 91.17 129.62 91.54 129.32 91.41C117.41 86.33 106.31 75.77 96.77 67.19L96.77 67.19ZM112.78 73.2C112.31 72.78 112.98 72.15 113.46 72.53C115.75 74.33 118.21 75.87 120.65 77.47C122.57 78.73 125.02 79.82 126.51 81.6C126.83 81.98 126.52 82.47 126.04 82.4C123.48 82.01 121.02 79.99 118.96 78.5C116.77 76.92 114.78 75.02 112.78 73.2L112.78 73.2ZM125.34 76.61C124.94 76.42 125.29 75.8 125.69 76.02C126.52 76.46 127.35 76.89 128.15 77.39C128.37 77.53 128.22 77.93 127.96 77.83C127.06 77.47 126.21 77.04 125.34 76.61L125.34 76.61ZM131.02 75.33C130.5 75.04 131.02 74.21 131.47 74.55C132.1 75.03 132.74 75.49 133.33 76.02C133.57 76.23 133.26 76.56 133 76.44C132.32 76.11 131.67 75.71 131.02 75.33L131.02 75.33ZM174.15 71.73C180.32 82.45 187.05 92.93 192.98 103.76C199.67 115.97 199.28 128.56 203.63 141.27C204.15 142.8 206.21 142.16 205.99 140.62C202.32 115 188.12 92.88 174.88 71.3C174.6 70.84 173.87 71.26 174.15 71.73L174.15 71.73ZM195.13 119.85C194.95 119.25 195.85 119.02 196.05 119.59C199.87 130.26 206 143.06 203.83 154.64C203.66 155.51 202.55 155.28 202.29 154.64C197.84 143.86 198.56 131.08 195.13 119.85L195.13 119.85ZM84.69 128.5C84.52 128.29 84.81 127.99 84.99 128.2C90.96 135.19 98.01 140.2 105.54 145.33C105.97 145.62 105.61 146.23 105.14 146.02C97 142.27 90.1 135.51 84.69 128.5L84.69 128.5ZM92.45 126.37C92.02 125.96 92.66 125.34 93.09 125.73C94.64 127.14 96.2 128.55 97.76 129.96C98.53 130.67 99.31 131.37 100.09 132.08C100.24 132.21 102.83 134.43 102.5 133.18C102.45 133.01 102.65 132.83 102.81 132.94C104.09 133.85 102.7 135.23 101.43 134.7C99.87 134.05 98.49 132.12 97.29 130.98C95.68 129.44 94.06 127.9 92.45 126.37L92.45 126.37ZM95.12 123.08C94.72 122.65 95.35 122.02 95.76 122.44C96.88 123.59 98.13 124.57 99.58 125.29C100.86 125.94 102.32 126.14 103.55 126.88C103.71 126.98 103.7 127.28 103.49 127.32C100.48 127.85 97.04 125.13 95.12 123.08L95.12 123.08ZM99.64 114.81C100.24 116.76 102.65 114.97 101.03 113.97C100.84 113.85 100.68 114.1 100.81 114.26C100.67 114.37 100.54 114.48 100.41 114.59C100.29 114.09 99.48 114.31 99.64 114.81L99.64 114.81ZM95.03 101.86C94.92 101.72 94.88 101.51 95.03 101.37C96.16 100.34 97.84 100.63 99.05 101.38C98.42 101.64 97.79 101.9 97.15 102.15C97.32 101.52 97.2 100.94 96.81 100.42C96.6 100.05 97.01 99.71 97.36 99.88C98.25 100.3 98.71 100.82 99.31 101.58C99.99 102.46 99.4 104.27 98.05 103.74C96.99 103.32 95.76 102.77 95.03 101.86L95.03 101.86ZM129.07 119.6C128.68 119.39 129.03 118.81 129.42 119.01C135.78 122.14 144.53 125.54 148.53 131.77C149.05 132.57 148.06 133.4 147.3 133.01C144.08 131.32 141.25 128.32 138.4 126.06C135.39 123.68 132.45 121.45 129.07 119.6L129.07 119.6ZM138.49 134.04C138 131.94 141.35 131.11 141.67 133.17C141.83 134.17 143.45 136.14 142.06 136.89C140.33 137.8 138.8 135.37 138.49 134.04L138.49 134.04Z" />
</svg>