<svg version="1.2" baseProfile="tiny-ps" xmlns="http://www.w3.org/2000/svg" viewBox="0 0 818 840" width="818" height="840">
	<title>Vector Smart Object (Double Click to Edit)9</title>
	<style>
		tspan { white-space:pre }
		.shp0 { opacity: 0.502;fill: #e26241 } 
	</style>
	<path id="Vector Smart Object (Double Click to Edit)" class="shp0" d="M219.47 428.23C219.45 429.04 218.29 429.02 218.22 428.23C208.95 316.58 338.37 213.24 445.58 240.89C500.19 254.98 566.97 284.46 600.49 331.89C634.41 379.9 649.56 440.56 635.15 498.51C621.03 555.3 590.16 600.83 534.03 622.18C479.34 642.99 407.88 658.22 352.14 633.51C250.57 588.49 170.2 481.92 226.98 371.15C228.97 367.26 234.35 370.67 232.71 374.49C187.78 479.08 261.05 594.57 365.45 626.7C418.69 643.08 487.62 632.34 537.82 608.21C587.29 584.44 617.8 540.09 627.15 485.93C637.01 428.84 624.3 364.95 576.34 327.49C538.99 298.33 486.87 269.73 440.51 259.27C386.78 247.14 332.11 257.25 290.34 294.9C253.78 327.86 220.5 377.63 219.47 428.23L219.47 428.23ZM463.66 349.5C464.81 349.29 465.73 350.99 464.51 351.52C460.25 353.4 456.17 358.55 459.12 363.37C460.86 366.22 464.92 368.21 468.24 367.03C471.55 365.84 471.26 357.43 469.55 354.99C467.7 352.34 463.31 350.85 460.24 351.82C458.74 352.29 456.99 350.35 458.05 348.97C462.9 342.69 472.08 344.67 475.87 351.3C479.58 357.77 479.28 370.98 471.16 374.02C463.54 376.87 454.82 373.1 453 364.93C451.35 357.48 456.51 350.84 463.66 349.5L463.66 349.5ZM494.71 409.45C495.5 408.73 496.6 409.84 495.88 410.63C487.87 419.4 487.49 433.83 491.97 444.46C497.37 457.25 514.96 462.71 523.17 448.51C528.51 439.26 528.39 424.81 517.93 418.76C513.15 415.99 507.92 414.49 502.37 415.23C498.83 415.7 496.16 416.98 492.66 416.66C491.38 416.54 490.62 415.34 491.22 414.16C498.14 400.62 520.82 410.07 527.98 418.35C538.15 430.11 534.06 448.97 522.58 457.99C510.24 467.69 494.61 461.8 488.33 448.69C482.56 436.64 484.78 418.57 494.71 409.45L494.71 409.45ZM471.2 406.83C473.62 406.17 474.57 409.77 472.23 410.56C470.32 411.21 468.8 412.83 468.4 414.84C468.11 416.26 468.21 419.33 470.15 419.72C474.55 420.59 474.68 413.84 474.71 411.15C475.41 412.08 476.12 413.01 476.82 413.93C474.06 412.92 470.65 412.38 469.29 409.48C468.73 408.27 469.22 407.12 470.45 406.64C473.44 405.48 476.34 407.5 479.04 408.67C479.9 409.04 480.53 410.25 480.47 411.15C480.18 415.38 479.64 419.83 476.2 422.73C473.6 424.92 469.04 425.7 466.45 422.98C461.38 417.66 464.23 408.75 471.2 406.83L471.2 406.83ZM379.5 332.73C380.68 332.31 381.5 334.24 380.36 334.75C375.79 336.79 372.17 343.61 376.33 347.93C379.35 351.06 384.89 352.51 388.08 348.65C390.88 345.26 390.87 340.12 387.32 337.18C385.63 335.78 383.61 334.77 381.45 334.32C379.82 333.98 378.77 334.03 377.71 332.69C377.24 332.1 377.14 331.32 377.71 330.74C380.04 328.36 384.35 330.1 387 331.21C390.37 332.62 393.06 335.09 394.63 338.39C397.38 344.16 393.7 352.11 387.87 354.36C381.94 356.66 373.55 353.6 371.94 346.93C370.47 340.85 373.61 334.86 379.5 332.73L379.5 332.73ZM342.61 387.52C344.11 385.97 347.01 388.1 345.65 389.87C343.94 392.1 342.01 393.92 339.63 395.43C340.01 394.76 340.4 394.09 340.78 393.41C340.6 396.67 341.05 399.68 342.17 402.74C341.23 402.03 340.29 401.32 339.36 400.6C341.44 400.77 344.66 400.26 345.76 398.14C346.36 397.01 345.99 395.59 345 394.77C344.08 394.01 342.93 394.35 341.96 393.62C341.17 393.02 340.97 392.26 341.37 391.35C342.51 388.69 346.1 389.68 348.03 390.84C350.56 392.36 351.89 395.43 351.84 398.28C351.74 405.05 344.06 407.4 338.58 406.33C337.63 406.14 336.77 405.21 336.54 404.29C335.71 400.85 335.42 397.3 336.02 393.79C336.37 391.74 337.21 391.59 338.86 390.57C340.26 389.7 341.47 388.71 342.61 387.52L342.61 387.52ZM458.22 474.73C460.3 476.12 458.51 479.18 456.27 478.07C452.12 476.02 446.79 479.09 445.76 483.48C444.71 487.93 445.74 492.53 447.2 496.78C446.4 495.98 445.61 495.18 444.81 494.39C452.61 496.04 458.3 488.31 457.92 481.1C457.88 480.25 459.06 480.01 459.47 480.69C463.12 486.72 462.1 493.19 456.73 497.77C452.4 501.45 442.44 504.13 440.08 497.29C437.83 490.77 437.26 481.81 443.1 476.78C447.37 473.11 453.23 471.4 458.22 474.73L458.22 474.73ZM451.66 476.64C452.04 476.64 452.04 476.05 451.66 476.05C451.28 476.05 451.28 476.64 451.66 476.64L451.66 476.64ZM231.87 402.8C232.48 401.5 234.36 402.63 233.78 403.91C206.98 463.55 259.64 544.75 302.84 581.56C304.49 582.97 302.14 585.18 300.49 583.9C271.49 561.37 248.62 532.75 237.33 497.39C228.24 468.88 218.55 431.37 231.87 402.8L231.87 402.8ZM326.69 594.87C325.77 594.33 326.58 592.96 327.53 593.44C335.5 597.5 343.65 601.23 352.1 604.17C359.55 606.77 367.52 608.31 374.76 611.36C377.07 612.33 376.22 615.42 373.73 615.09C357.57 612.9 340.51 603.05 326.69 594.87L326.69 594.87ZM404.55 620.8C403.7 620.41 404.31 618.97 405.19 619.28C424.78 626.25 441.72 605.96 461.19 615.31C462.38 615.88 461.86 617.45 460.86 617.83C450.2 621.87 436.62 620.88 425.36 622.65C417.92 623.82 411.46 623.94 404.55 620.8L404.55 620.8ZM469.62 615.42C467.89 615.22 467.79 612.67 469.62 612.66C476.13 612.62 482.67 611.8 488.83 609.58C493.13 608.02 497.76 603.86 502.37 605.53C503.22 605.84 503.78 606.65 503.53 607.57C502.1 612.85 494.98 613.72 490.22 614.62C483.34 615.92 476.58 616.24 469.62 615.42L469.62 615.42ZM266.55 523.38C266.51 523.06 267.01 523.02 267.09 523.31C271.86 539.01 284.58 548.08 296.46 558.32C308.44 568.64 320.92 576.58 334.47 584.56C335.34 585.08 335.05 586.77 333.91 586.62C316.41 584.44 301.63 571.61 288.54 560.64C277.18 551.12 268.34 538.29 266.55 523.38L266.55 523.38ZM358.29 594.13C357.22 593.92 357.7 592.38 358.73 592.53C362.51 593.05 366.3 593.58 370.08 594.11C371.47 594.3 370.91 596.51 369.49 596.24C365.76 595.54 362.02 594.83 358.29 594.13L358.29 594.13ZM393.34 601.03C391.56 601.03 391.56 598.27 393.34 598.27C393.72 598.27 394.09 598.27 394.46 598.27C396.25 598.27 396.25 601.03 394.46 601.03C394.09 601.03 393.72 601.03 393.34 601.03L393.34 601.03ZM351.76 271.31C350.82 271.83 350.01 270.45 350.92 269.88C364.16 261.6 379.51 260.2 394.86 259.75C411.76 259.25 429.86 256.75 446.28 261.64C446.86 261.81 446.78 262.78 446.14 262.72C431.28 261.28 416.94 262.14 402.07 263.08C384.85 264.17 367.37 262.65 351.76 271.31L351.76 271.31ZM456.11 263.49C455.75 263.38 455.9 262.81 456.27 262.92C458.88 263.67 461.5 264.42 464.12 265.17C464.48 265.28 464.32 265.85 463.96 265.74C461.34 264.99 458.73 264.24 456.11 263.49L456.11 263.49ZM486.51 286.6C483.23 285.38 484.5 280.27 487.98 281.27C502.76 285.53 524.06 290.28 531.97 305.18C532.79 306.73 531.19 308.12 529.7 307.45C522.44 304.13 515.7 299.36 508.48 295.78C501.35 292.25 493.96 289.38 486.51 286.6L486.51 286.6ZM577.58 332.59C577.41 332.38 577.67 332.12 577.87 332.29C622.68 370.01 630.24 423.3 626.39 478.62C626.31 479.68 624.65 479.69 624.73 478.62C628.68 421.92 613.71 376.19 577.58 332.59L577.58 332.59ZM614.72 464.3C614.41 462.91 616.49 462.33 616.85 463.71C620.88 479.11 614.55 495.69 605.85 508.45C604.64 510.22 602.07 508.7 602.98 506.77C609.58 492.83 618.33 480.56 614.72 464.3L614.72 464.3ZM597.96 533.6C599.49 531.23 602.94 533.92 601 535.94C598.99 538.04 596.98 540.13 594.98 542.22C594.11 543.12 592.55 541.94 593.24 540.88C594.81 538.45 596.38 536.03 597.96 533.6L597.96 533.6ZM280.16 422.99C280.31 423.31 279.85 423.59 279.69 423.26C266.13 395.74 273.69 366.89 282.09 338.97C282.61 337.26 285.32 338.01 284.76 339.7C275.7 367.02 267.41 395.36 280.16 422.99L280.16 422.99ZM284.24 387.28C284.52 389.35 281.41 390.3 281.04 388.17C279.01 376.56 279.74 362.29 287.73 352.98C288.63 351.92 290.45 353.04 290.04 354.32C286.4 365.58 282.55 375.13 284.24 387.28L284.24 387.28ZM307.7 331.42C306.87 334.89 301.24 333.34 302.37 329.95C303.24 327.33 304.48 324.84 306.32 322.75C307.82 321.04 310.02 318.42 312.5 318.72C313.57 318.85 314.4 319.68 314.1 320.82C313.55 322.94 311.37 323.93 310.19 325.73C309 327.52 308.2 329.33 307.7 331.42L307.7 331.42ZM306.58 516.44C306.77 516.13 307.2 516.4 307.06 516.72C306.08 518.92 305.66 522.22 308.65 522.95C309.88 523.25 311.19 523.35 312.4 522.85C315.36 521.64 314.46 519 313.06 516.67C313.65 517.02 314.25 517.36 314.85 517.7C312.24 517.47 309.97 517.63 307.74 519.15C306.16 520.23 304.38 517.83 305.73 516.55C307.91 514.47 313.52 511.36 316.32 514.16C318.38 516.22 318.61 522.32 316.06 524.03C313.59 525.69 309.84 526.15 307.29 524.32C304.43 522.27 304.77 519.26 306.58 516.44L306.58 516.44ZM308.82 492.7C310.33 491.16 312.55 493.45 311.16 495.05C310.14 496.24 309.38 498.01 309.88 499.61C310.45 501.4 312.38 497.9 312.49 497.41C312.73 496.37 313.08 495.06 312.69 494.01C312.54 493.6 311.17 492.73 310.91 493.49C310.46 494.87 308.75 494.74 308.25 493.49C306.81 489.95 311.03 487.57 314.02 488.79C318.19 490.5 317.72 495.88 316.42 499.32C315.09 502.83 311.3 505.29 307.78 503.07C304.23 500.83 306.62 494.95 308.82 492.7L308.82 492.7ZM10.75 368.51C10.99 369.55 9.48 369.96 9.15 368.95C0.06 341.2 5.34 313.02 19.98 287.96C30.41 270.08 43.02 253.63 53.54 235.84C63.13 219.61 69 201.3 78.86 185.35C97.2 155.68 130.56 143.48 152.92 117.36C175.69 90.77 194.33 61.07 220.88 37.9C271.9 -6.61 350.57 -7.51 411.76 12.63C454.57 26.73 489.77 45.78 535.77 46.8C567.69 47.5 596.28 56.57 624.2 71.96C682.28 103.97 737.37 151.42 761.72 214.84C777.21 255.2 774.08 297.79 786.16 338.67C796.76 374.52 813.35 408.83 816.86 446.47C822.9 511.06 804.93 578.42 763.45 629.1C750.37 645.1 733.52 657.32 720.4 673.02C706.69 689.43 702.56 709.15 690.98 726.47C674.14 751.65 648.83 763.17 621.12 773.31C576.99 789.46 532.76 805.37 488.3 820.57C455.63 831.75 420.03 844.09 384.93 838.68C339.77 831.71 299.64 808.94 256.89 794.05C220.2 781.27 182.23 770.18 147.35 752.79C80.31 719.37 35.93 669.16 25.12 593.52C12.58 505.73 9.42 416.54 1.83 328.25C1.51 324.51 7.29 324.56 7.64 328.25C15.8 415.14 19.5 505.02 34.06 591.05C40.85 631.17 53.77 670.14 84.3 698.77C114.39 726.99 150.46 745.95 188.96 760.19C229.26 775.1 270.15 787.9 309.64 804.93C358.89 826.18 403.15 838.28 456.37 822.14C500.87 808.65 544.7 792.61 588.49 776.98C609.68 769.42 633.28 763.25 652.75 751.84C675.3 738.62 686 721.76 696.38 698.85C712.67 662.9 746.39 643.1 767.24 610.13C788.28 576.87 802.15 537.98 804.31 498.47C806.75 453.7 795.88 415.27 779.74 373.99C763.99 333.72 763.2 294.78 753.45 253.47C734.54 173.36 671.29 114.62 598.98 79.92C557.93 60.22 513.39 69.25 472.83 50.33C429.2 29.97 385.13 9.87 335.73 10.42C287.77 10.96 241.52 26.14 209.11 62.96C186.48 88.69 168.31 120.82 141.2 142.36C122.35 157.34 98.39 167.73 86.79 189.99C78.09 206.69 71.21 224.29 60.67 240.01C34.79 278.61 -0.96 318.4 10.75 368.51L10.75 368.51ZM5.87 348.24C6.12 349.66 4.01 350.84 3.35 349.3C-0.14 341.18 -1.24 332.16 1.76 323.66C4.46 316.02 7.56 306.18 13.61 300.65C15.07 299.31 18.07 300.1 17.86 302.4C17.18 309.77 12.15 315.78 9.71 322.7C6.78 330.99 4.32 339.38 5.87 348.24L5.87 348.24ZM92.12 253.16C92.77 252.87 93.28 253.7 92.68 254.11C89.47 256.3 86.95 259.95 86.69 263.93C86.58 265.48 86.58 267.06 87.08 268.56C87.48 269.79 90.09 268.61 90.68 268.24C93.34 266.55 96.65 263.06 95.62 259.51C94.9 257.06 92.17 255.34 89.82 256.87C86.53 259.02 83.48 253.76 86.75 251.62C91.75 248.36 99.52 251.19 101.22 257C103.01 263.12 99.67 270.81 93.68 273.37C88.06 275.78 81.9 273.26 82.73 266.54C83.46 260.69 86.64 255.6 92.12 253.16L92.12 253.16ZM196.42 251.97C198.03 250.94 199.75 253.26 198.43 254.58C196.41 256.59 192.73 259.88 193.55 263.16C194.27 266.02 197.51 265.8 199.68 264.42C201.7 263.14 203.45 260.86 203.31 258.34C203.38 259.59 203.06 258.59 201.88 258.33C201.29 258.19 200.7 258.09 200.1 258.04C198.47 257.83 197.74 257.18 196.65 256.05C195.92 255.28 195.87 254.3 196.31 253.37C197.87 250.02 201.68 249.85 204.86 251.07C208.08 252.31 210.9 253.76 211.19 257.52C211.67 263.68 207.93 269.67 202.35 272.24C196.53 274.92 188.69 272.57 187.66 265.62C186.71 259.26 191.58 255.06 196.42 251.97L196.42 251.97ZM224.43 68.88C225.79 67.77 227.62 69.51 226.39 70.84C224.59 72.77 222.31 74.99 221.77 77.69C221.37 79.72 222.41 84.16 225.45 82.32C229.69 79.75 231.91 73.39 232.54 68.72C233.24 69.94 233.93 71.16 234.62 72.38C232.16 71.53 229.63 73.57 227.41 74.57C225.94 75.23 224.31 73.86 225.14 72.3C227.37 68.15 231.45 65.66 236.21 66.64C237.49 66.91 238.4 68.25 238.4 69.51C238.37 74.62 237.15 79.83 233.61 83.67C230.66 86.88 226.34 89.34 221.96 87.67C218.35 86.29 216.91 82.26 217.36 78.68C217.88 74.43 221.3 71.43 224.43 68.88L224.43 68.88ZM262.89 129.59C264.35 127.99 267.27 130.18 265.92 131.94C264.33 134.02 263.45 136.2 263.37 138.85C263.15 138.3 262.92 137.76 262.7 137.22C263.84 138.23 265.61 139.08 267.19 138.65C267.82 138.48 268.67 136.24 268.79 135.7C269.24 133.66 267.81 132.07 265.65 132.68C264.12 133.11 262.34 131.58 262.93 129.96C264.49 125.65 269.58 125.23 272.61 128.52C276.09 132.28 275.18 137.19 272.25 141.01C270.54 143.23 269.05 143.97 266.23 143.83C264.25 143.72 262.16 142.89 260.64 141.62C258.53 139.85 258.46 137.98 259.39 135.41C260.2 133.2 261.3 131.34 262.89 129.59L262.89 129.59ZM357.76 23.51C358.63 24.4 357.51 25.91 356.42 25.25C351.46 22.22 344.51 28.1 349.57 32.65C354.38 36.98 358.45 28.81 359.46 25.12C360.17 26.36 360.88 27.61 361.59 28.86C359.11 28.12 357.68 26.34 357.06 23.85C356.73 22.53 358.24 21.11 359.5 21.98C360.62 22.76 361.89 22.8 363.21 22.99C364.88 23.23 365.71 25.28 365.34 26.74C364.06 31.84 361.24 37.23 356.14 39.36C351.31 41.39 345.17 39.44 342.86 34.52C340.82 30.16 341.57 24.27 346.45 22.02C350.28 20.24 354.69 20.35 357.76 23.51L357.76 23.51ZM572.79 130.16C576.05 130.19 575.93 134.85 572.79 135.14C566.14 135.74 567.65 146.23 574.03 144.31C578.63 142.93 577.75 134.7 572.66 135.07C571.14 135.18 570.31 133.36 570.98 132.16C572.64 129.21 575.88 127.86 579.09 129.03C582.32 130.21 584.44 133.23 585.39 136.43C587.3 142.83 582.37 150.31 576.03 151.56C569.84 152.78 562.57 148.4 562.12 141.79C561.69 135.69 566.62 130.12 572.79 130.16L572.79 130.16ZM479.65 222.9C479.96 222.88 480.03 223.4 479.72 223.45C468.05 225.24 473.81 238.43 479.3 243.1C482.53 245.85 486.81 249.42 491.37 247.6C494.21 246.47 496.92 244.25 497.77 241.18C498.73 237.68 494.74 236.05 491.98 234.47C489.49 233.04 486.96 231.65 484.26 230.65C480.64 229.31 475.9 229.13 473.21 226.26C472.64 225.64 472.67 224.5 473.49 224.09C477.78 221.95 483.19 224.74 487.36 226.37C492.37 228.32 497.17 231.08 501.38 234.44C508.32 239.98 499.21 250.85 492.56 251.91C483.81 253.3 474.31 245.51 471.86 237.17C470.05 231.01 472.28 223.35 479.65 222.9L479.65 222.9ZM519.51 246.65C521.62 246.17 522.38 249.11 520.39 249.85C515.34 251.73 516.93 260.17 522.59 257.92C526.79 256.25 523.36 251.11 521.23 249.32C520.24 248.48 520.86 246.88 521.97 246.55C526.98 245.05 531.29 250.22 531.51 254.96C531.75 260.01 527 264.25 522.06 264.12C517.51 264 512.89 261.14 512.69 256.17C512.51 251.83 515.15 247.63 519.51 246.65L519.51 246.65ZM613.93 297.44C614.22 297.56 614.01 298.06 613.72 297.94C606.55 295.16 600.8 303.72 603.4 310.06C604.87 313.64 607.16 316.68 610.06 319.22C613 321.82 616.56 325.05 620.54 325.98C624.93 327.01 632.92 326.33 632.55 319.33C631.87 306.45 618.49 297.91 606.47 299.22C605.23 299.36 604.95 297.24 606.18 297.05C615.88 295.57 627.34 299.58 632.32 308.58C636.39 315.95 636.96 328.77 625.29 328.83C614.85 328.88 603.93 318.39 601.73 308.54C600.19 301.65 607.27 294.57 613.93 297.44L613.93 297.44ZM630.88 209.64C631.59 209.52 631.85 210.46 631.18 210.71C627.91 211.89 625.8 215.16 625.71 218.61C625.67 220.35 625.36 225.87 627.24 226.29C630.47 227 634.58 225.73 636.01 222.5C637.7 218.7 633.62 214.42 629.78 214.56C627.44 214.65 623.93 214.93 624.07 211.59C624.13 210.1 625.02 208.92 626.45 208.47C632.52 206.56 640.11 210.87 641.92 216.92C643.69 222.86 640.45 228.57 634.87 230.92C632.38 231.97 629.2 232.55 626.61 231.48C623.16 230.06 622.14 228.79 622.09 225.04C622 218.78 623.61 210.93 630.88 209.64L630.88 209.64ZM682.68 441.37C684.87 439.66 687.87 442.41 685.81 444.49C682.51 447.84 680.52 452.96 681.82 457.67C682.46 459.98 683.45 463.14 686.5 461.21C688 460.26 689.5 458.9 689.98 457.12C691.32 452.2 688.45 449.72 684.6 447.46C682.5 446.23 682.58 443.89 683.93 442.26C684.63 441.41 686.14 441.05 687.16 441.4C692.98 443.42 698.48 449.09 697.87 455.74C697.25 462.39 693.01 468.87 686 469.92C678.76 471 675.14 463.58 675.2 457.33C675.27 451.07 677.69 445.27 682.68 441.37L682.68 441.37ZM465.12 739.81C467.97 739.85 467.97 744.22 465.12 744.23C463.23 744.24 461.35 744.25 459.47 744.25C460.12 743.88 460.77 743.51 461.43 743.13C459.64 746.42 458.19 751.49 461.37 754.53C463.73 756.78 467.27 756.9 469.01 753.76C470.7 750.7 469.91 747.06 466.82 745.16C464.71 743.86 462.36 743.67 460.61 741.82C459.82 740.99 460.08 739.86 460.95 739.22C465.59 735.8 472.17 741.76 474.17 745.8C476.44 750.38 474.82 756.28 470.74 759.28C466.28 762.57 460.73 761.4 457.33 757.21C453.41 752.38 454.67 745.84 457.51 740.84C457.9 740.16 458.68 739.7 459.47 739.72C461.35 739.75 463.23 739.78 465.12 739.81L465.12 739.81ZM60.67 596.31C61.94 594.1 65.01 596.03 64.01 598.26C60.91 605.11 69.39 608.53 74.61 608.85C73.73 609.36 72.85 609.86 71.97 610.37C74.11 606.99 75.61 601.14 72.26 597.87C69.08 594.76 66.22 595.79 62.55 597.06C58.27 598.55 55.06 592.6 58.2 589.61C63.92 584.16 74.34 587.01 78.49 593.08C83.03 599.71 81.49 608.05 76.78 614.08C76.08 614.98 74.8 615.03 73.8 614.87C65.27 613.49 55.16 605.86 60.67 596.31L60.67 596.31ZM86.11 522.01C90.72 522.27 90.76 529.02 86.11 529.2C81.66 529.36 85.27 548.49 91.39 541.73C93.84 539.03 95.29 534.48 94.18 530.87C92.99 526.97 89.33 526.23 85.69 525.51C83.78 525.13 83.37 522.96 84.04 521.45C88.69 510.97 102.36 520.19 104 528.16C105.74 536.62 103.27 549.86 93.4 552.52C73.58 557.86 69.85 521.09 86.11 522.01L86.11 522.01ZM67.32 435.24C69.79 432.65 73.67 436.55 71.23 439.15C66.81 443.84 64.55 451.33 68 457.33C71.57 463.52 81.31 469.99 85.84 460.75C88.36 455.6 89.9 445.52 83.45 442.27C79.32 440.19 75.85 441.55 72.17 443.73C70.65 444.63 68.96 443.16 69.33 441.55C71.15 433.43 82.99 433.48 88.26 438.37C95.6 445.18 95.64 458.13 89.47 465.82C82.58 474.4 70.96 471.71 65.02 463.23C58.74 454.27 59.83 443.11 67.32 435.24L67.32 435.24ZM143.49 422.02C144.3 420.87 146.09 421.86 145.4 423.13C143.33 426.93 146.4 431.97 150.75 431.6C150.17 431.93 149.59 432.27 149.01 432.6C151.03 428.49 153.65 421.82 149.24 418.21C147.95 417.16 149.33 414.93 150.86 415.44C154.49 416.67 157.36 420.1 156.9 424.11C156.59 426.8 155.76 429.3 154.37 431.63C153.63 432.89 152.61 435.7 150.75 435.64C144.26 435.42 139.52 427.6 143.49 422.02L143.49 422.02ZM212.81 523.52C212.65 523.2 213.09 522.93 213.28 523.24C231.48 551.74 255.19 575.97 278.13 600.67C301.55 625.89 325.39 654.86 361.97 658.57C365.47 658.92 365.54 664.41 361.97 664.1C330.58 661.38 308.75 641.85 287 620.66C256.75 591.19 231.26 561.97 212.81 523.52L212.81 523.52ZM275.99 630.13C275.73 628.72 277.62 628.2 278.12 629.54C280.56 636 285.19 641.69 291.4 644.89C295.65 647.08 301.25 648.35 304.87 651.4C305.67 652.07 305.44 653.54 304.53 654C298.71 656.99 290.79 652.85 286.49 648.84C281.04 643.76 277.33 637.48 275.99 630.13L275.99 630.13ZM400.3 665.72C396.49 665.07 398.06 658.85 401.92 659.86C405.42 660.77 409.01 661.31 412.65 661.08C415.99 660.87 419.17 659.95 422.52 659.98C423.65 659.99 424.46 661.54 423.5 662.34C417.5 667.37 407.57 666.96 400.3 665.72L400.3 665.72ZM436.16 659.76C435.13 659.93 434.66 658.39 435.72 658.17C439.44 657.37 443.16 656.58 446.89 655.78C448.29 655.48 448.86 657.69 447.47 657.91C443.7 658.53 439.93 659.15 436.16 659.76L436.16 659.76ZM77.18 666.39C76.33 664.81 78.58 663.52 79.56 665C104.41 702.14 142.57 731.9 185.35 744.96C187.08 745.49 186.83 748.35 184.91 748.22C138.82 745.11 98 705.24 77.18 666.39L77.18 666.39ZM212.5 759.28C208.78 756.63 212.29 750.43 216.13 753.08C232.17 764.13 247.72 757.96 262 772.44C278.59 789.28 316.24 810.98 339.59 813.64C342.01 813.91 342.14 817.62 339.59 817.51C312.97 816.38 291.82 800.43 270.3 786.15C255.41 776.28 248.9 768.69 231.04 766.47C223.56 765.55 218.46 763.52 212.5 759.28L212.5 759.28ZM359.63 827.23C358.41 828.95 355.57 827.36 356.76 825.56C367.97 808.65 380.99 826.75 394.2 818.84C403.85 813.05 414.72 815.64 425.5 814.62C436.67 813.56 439.53 805.21 450.87 809.11C452.68 809.73 452.31 812.22 450.43 812.37C439.77 813.19 435.15 820.09 425.5 819.84C416.33 819.6 402.17 818.12 395.09 825.05C384.13 835.78 372.27 809.36 359.63 827.23L359.63 827.23ZM505.83 796.89C504.46 797.37 503.95 795.28 505.24 794.76C530.31 784.59 556.62 778.34 581.13 767.25C583.33 766.26 585.68 768.83 583.81 770.72C574.89 779.78 561.26 781.05 549.34 783.58C534.43 786.75 520.19 791.88 505.83 796.89L505.83 796.89ZM313.25 785.23C312.69 784.82 313.17 783.92 313.81 784.28C322.2 789.04 331.33 791.06 340.95 791.22C347.19 791.32 354.15 789.56 359.76 792.54C361.02 793.2 361.03 795.22 359.76 795.88C353.43 799.17 344.24 796.78 337.42 795.39C328.52 793.57 320.57 790.7 313.25 785.23L313.25 785.23ZM40.14 549.37C40.21 549.74 39.63 549.9 39.57 549.52C30.84 493.2 22 437.29 19.14 380.26C16.88 335.07 18.51 289.3 53.05 256.13C55.11 254.16 58.25 257.29 56.18 259.26C16.42 296.99 20.6 352.73 24.09 402.93C27.48 451.85 31.47 501.06 40.14 549.37L40.14 549.37ZM28.85 325.04C28.69 325.73 27.62 325.44 27.78 324.74C30.89 311.24 36.04 298.63 43.26 286.81C43.63 286.2 44.59 286.75 44.21 287.36C37.05 299.09 31.93 311.65 28.85 325.04L28.85 325.04ZM77.95 227.71C77.34 229.15 74.9 228.11 75.43 226.64C83.84 203.15 93.1 182.03 111.99 165.09C135.32 144.17 165.92 137.39 180.6 106.92C180.74 106.63 181.19 106.84 181.11 107.13C174.87 128.87 157.63 139.18 139.17 150.26C108.36 168.76 91.73 195.49 77.95 227.71L77.95 227.71ZM199.32 86.53C199.7 86.53 199.7 85.94 199.32 85.94C198.94 85.94 198.94 86.53 199.32 86.53L199.32 86.53ZM148.01 165.52C146.94 167.38 144.14 165.73 145.15 163.85C148.41 157.75 152.2 151.91 156.73 146.66C160.11 142.75 164.47 136.46 169.73 135.26C170.98 134.98 171.79 136.2 171.29 137.29C169.12 142.02 163 145.5 159.52 149.45C155.13 154.44 151.32 159.77 148.01 165.52L148.01 165.52ZM389.52 37.16C387.77 36.62 388.53 34.24 390.25 34.49C410.82 37.55 426.43 45.28 445.13 53.79C477.44 68.47 509.36 73.63 544.56 68.18C545.6 68.02 546.06 69.58 545 69.78C520.78 74.44 495.09 75.78 471.1 68.71C443.02 60.44 417.45 45.71 389.52 37.16L389.52 37.16ZM561.51 78.78C591.57 79.16 612.62 90.31 638.61 103.43C661.27 114.87 676.95 140.59 695.56 157.18C697.77 159.15 700.7 156.18 698.79 153.95C663.15 112.56 619.62 74.55 561.51 75.46C559.37 75.5 559.37 78.75 561.51 78.78L561.51 78.78ZM519.69 80.92C518.18 80.61 518.51 78 520.06 78.2C538.76 80.67 557.25 82.83 575.6 87.2C577.4 87.63 577.04 90.64 575.16 90.46C556.37 88.61 538.19 84.68 519.69 80.92L519.69 80.92ZM724.48 201.15C724.14 200.52 725.04 200 725.43 200.6C737.84 219.52 747.86 240.01 751 262.6C753.89 283.31 748.11 304.83 755.2 324.8C755.41 325.39 754.44 325.8 754.19 325.23C747.65 310.37 749.5 295.92 747.61 280.07C744.32 252.38 737.54 225.9 724.48 201.15L724.48 201.15ZM736.18 308.6C735.66 306.52 738.86 305.64 739.38 307.72C742.44 320.03 746.51 332.5 748.07 345.1C748.24 346.42 746.31 346.46 745.9 345.39C741.42 333.65 739.21 320.79 736.18 308.6L736.18 308.6ZM763.6 351.89C763.58 351.58 764.07 351.52 764.14 351.82C770.74 379.52 786.66 403.58 791.93 432.34C796.84 459.16 799.08 486.18 801.12 513.35C801.28 515.48 797.96 515.47 797.8 513.35C795.31 480.14 793.11 445.88 783.04 413.92C776.43 392.93 765.1 374.12 763.6 351.89L763.6 351.89ZM661.69 728.68C660.9 729.17 659.96 728 660.69 727.38C674.08 715.94 684.56 699.88 694.13 685.22C694.32 684.92 694.76 685.18 694.6 685.5C690.33 694.51 686.13 703.81 680.47 712.07C675.74 718.97 668.75 724.31 661.69 728.68L661.69 728.68ZM766.16 607.78C765.74 608.34 764.78 607.79 765.21 607.22C766.33 605.73 767.45 604.23 768.57 602.74C768.99 602.17 769.95 602.72 769.53 603.29C768.4 604.79 767.28 606.28 766.16 607.78L766.16 607.78ZM730.28 638.24C729.8 638.77 729.03 637.99 729.49 637.45C742.99 621.74 756.04 605.47 768.02 588.56C768.43 587.99 769.39 588.54 768.98 589.12C756.87 606.22 744.21 622.58 730.28 638.24L730.28 638.24ZM742.25 603.12C740.38 604.74 737.74 602.19 739.52 600.39C746.13 593.68 752.05 586.24 756.52 577.92C759.85 571.71 762.08 564.49 767.01 559.33C768.06 558.23 769.76 559.13 769.84 560.51C770.82 576.4 753.26 593.63 742.25 603.12L742.25 603.12ZM558.48 666.11C558.17 666.3 557.91 665.83 558.2 665.63C563.25 662.1 568.5 658.8 574.22 656.46C580.3 653.98 588.4 652.78 593.81 649.07C603.15 642.66 605.12 630.96 613.61 623.63C614.28 623.05 615.51 623.83 614.91 624.63C609.24 632.23 606.65 644.34 598.08 649.57C585.82 657.05 570.99 658.31 558.48 666.11L558.48 666.11ZM633.36 601.83C633.05 602.15 632.63 601.55 633.01 601.37C637.75 599.09 642.06 594.3 645.45 590.36C648.76 586.53 651.66 582.47 654.23 578.1C654.59 577.49 655.56 578.06 655.18 578.66C652.45 582.96 649.4 587.09 645.86 590.77C641.99 594.81 637.21 597.85 633.36 601.83L633.36 601.83ZM667.95 557.62C667.4 558.54 666.01 557.72 666.52 556.79C670.31 549.89 671.85 542.47 671.17 534.64C671.02 532.88 673.86 532.85 673.94 534.64C674.26 542.85 672.25 550.61 667.95 557.62L667.95 557.62ZM633.19 627.62C633 627.93 632.58 627.66 632.71 627.34C638.03 614.76 645.14 604.95 655.37 595.91C656.43 594.97 657.95 596.46 656.93 597.48C647.96 606.34 639.73 616.84 633.19 627.62L633.19 627.62ZM668.45 582.2C668.18 582.39 667.9 581.98 668.11 581.76C670.65 579.09 671.8 575.66 671.1 572.02C670.71 570 673.82 569.67 673.81 571.65C673.81 575.95 671.95 579.7 668.45 582.2L668.45 582.2ZM671.72 598.77C669.69 600.68 667.05 597.36 669.37 595.73C672.3 593.68 674.51 591.05 676.16 587.9C676.74 586.79 678.6 587.56 678.18 588.75C676.84 592.62 674.7 595.95 671.72 598.77L671.72 598.77ZM368.7 194.59C367.63 194.56 367.62 192.93 368.7 192.93C388.22 192.86 406.5 185.32 425.67 182.56C439.65 180.56 453.93 181.81 467.88 183.29C492.19 185.87 518.75 192.64 539.95 204.96C541.61 205.92 540.49 208.42 538.67 207.99C507.72 200.59 479.66 186.16 446.97 185.53C420.13 185.01 395.12 195.24 368.7 194.59L368.7 194.59ZM505.09 190.43C502.91 190.37 503 187.33 505.09 187.11C513.24 186.25 520.75 187.7 528.43 190.4C534.14 192.4 541.65 196.44 544.99 201.62C545.52 202.45 544.83 203.78 543.79 203.7C538.39 203.24 533.13 199.83 528.32 197.42C520.73 193.62 513.7 190.66 505.09 190.43L505.09 190.43ZM562.43 218.61C559.65 216.92 562.37 212.46 564.94 214.32C567.25 215.99 570.5 217.52 571.85 220.1C572.39 221.12 571.75 222.71 570.42 222.59C567.45 222.34 564.93 220.13 562.43 218.61L562.43 218.61ZM558.1 175.78C555.05 173.85 558.46 169.41 561.12 171.87C563.21 173.81 565.5 175.33 568.06 176.58C569.79 177.42 568.56 180.1 566.79 179.61C563.69 178.76 560.82 177.49 558.1 175.78L558.1 175.78ZM207.05 321.51C206.95 325.07 201.47 325.08 201.52 321.51C201.76 306.22 213.52 295.51 223.68 285.34C233.9 275.11 245.46 260.83 259.13 255.47C260.71 254.85 262.21 256.97 261.31 258.31C254.7 268.18 243.1 275.12 234.49 283.33C223.89 293.44 207.5 305.77 207.05 321.51L207.05 321.51ZM233.38 260.89C232.2 262.66 229.37 261.04 230.51 259.21C232.76 255.61 235.44 252.21 238.64 249.4C241.29 247.07 244.46 244.16 247.96 243.3C249.5 242.92 250.85 244.91 249.57 246.07C246.8 248.58 243.24 250.08 240.44 252.65C237.74 255.13 235.4 257.83 233.38 260.89L233.38 260.89ZM164.32 550.37C163.99 549.34 165.56 548.93 165.92 549.93C171.41 565.39 179.78 579.13 191 591.11C192.47 592.68 190.06 595.06 188.66 593.46C177.58 580.81 169.41 566.39 164.32 550.37L164.32 550.37ZM162.79 574.88C161.87 572.98 164.56 571.34 165.65 573.21C167.83 576.93 170.01 580.65 172.19 584.36C173.75 587.03 176.37 589.87 176.02 593.08C175.88 594.34 174.72 595.13 173.52 594.51C170.36 592.86 169.28 588.35 167.8 585.27C166.13 581.81 164.46 578.34 162.79 574.88L162.79 574.88ZM181.01 613.3C180.58 612.73 181.54 612.18 181.97 612.74C183.09 614.23 184.22 615.72 185.35 617.21C185.78 617.78 184.82 618.33 184.39 617.77C183.27 616.28 182.14 614.79 181.01 613.3L181.01 613.3ZM412.36 703.07C411.36 702.72 411.75 701.2 412.8 701.47C426.77 705.17 440.55 704.62 454.18 699.83C457.19 698.78 458.62 703.8 455.5 704.63C441.02 708.49 426.52 708.01 412.36 703.07L412.36 703.07Z" />
</svg>