<svg version="1.2" baseProfile="tiny-ps" xmlns="http://www.w3.org/2000/svg" viewBox="0 0 523 492" width="523" height="492">
	<title>Vector Smart Object (Double Click to Edit)8</title>
	<style>
		tspan { white-space:pre }
		.shp0 { opacity: 0.502;fill: #e26241 } 
	</style>
	<path id="Vector Smart Object (Double Click to Edit)" class="shp0" d="M361.62 223.49C398.59 224.81 430.22 236.79 448.41 270.73C460.93 294.08 466.79 320.87 477.73 345.07C478.15 346 479.65 345.92 479.62 344.75C477.74 276.27 461.33 185.82 379.74 173.81C375.99 173.26 374.59 178.93 378.39 179.61C422.38 187.45 450.11 223.09 462.97 263.94C465.01 270.41 481.56 329.37 476.06 333.01C472.16 335.59 458.99 290.25 457.76 285.72C446.32 243.48 407.55 208.64 361.56 223.13C361.36 223.19 361.42 223.48 361.62 223.49L361.62 223.49ZM383.07 177.64C380.91 179.85 377.63 176.79 379.56 174.43C404.96 143.15 434.07 114.93 459.12 83.36C477.09 60.69 489.29 43.1 518.19 34.26C518.6 36.72 519.02 39.18 519.43 41.64C488.27 45.35 466.76 52.87 443.31 75.05C432.18 85.57 421.3 96.09 409.62 106.03C389.44 123.21 368.58 141.56 344.15 152.2C343.37 152.54 342.62 151.34 343.25 150.78C374.38 123.13 407.57 99.11 437.82 70.03C462.21 46.58 485.93 38.09 519.19 34.09C523.52 33.57 524.37 40.26 520.43 41.47C487.81 51.49 473.39 77.76 452.06 101.62C429.3 127.1 406.97 153.24 383.07 177.64L383.07 177.64ZM340.72 152.87C340.64 153.52 339.65 153.49 339.48 152.92C325.74 105.49 272.86 67.54 281.21 15.85C281.63 13.19 284.86 9.87 284.93 7.24C284.77 12.97 275.71 23.21 273.73 30.1C269.01 46.57 268.91 66.63 272.72 83.29C278.93 110.42 302.47 128.99 303.77 157.24C303.81 158.25 302.32 158.27 302.21 157.29C299.42 131.01 280.2 116.68 271.7 93.71C267.01 81.06 265.76 67.2 266.34 53.8C267.28 32.29 271.17 11.5 290.71 0.25C292.05 -0.53 293.72 0.87 292.96 2.32C271.81 42.64 301.2 76.39 323.61 108.16C334.24 123.22 342.95 134.21 340.72 152.87L340.72 152.87ZM302.08 156.08C303.41 155.62 304.12 157.47 303.08 158.22C274.35 178.8 236.72 173.31 203.37 173.69C194.79 173.79 153.32 173.81 150.11 180.11C153.18 174.1 189.18 179.16 196.2 180.1C215.09 182.62 233.45 187.82 252.18 191.14C266.07 193.6 288.64 188.36 301.02 194.5C312.07 199.97 311.47 222.77 323.9 217.3C324.08 217.22 324.39 217.29 324.52 217.44C325.15 218.16 325.77 218.87 326.4 219.59C326.94 220.2 326.08 221.15 325.54 220.53C326.51 221.65 315.78 224.61 313.77 225.16C313.37 225.27 312.97 225 312.96 224.59C311.48 187.97 256.73 195.02 232.69 190.7C201.99 185.18 172.79 176.81 142.1 187.53C139.46 188.46 137.28 184.93 139.19 182.94C153.36 168.15 178.72 168.13 197.99 167.69C234.92 166.84 266.5 168.48 302.08 156.08L302.08 156.08ZM362.99 221.32C348.29 229.9 342.23 251.53 334.47 266.12C327.11 279.96 315.17 295.55 316.79 312.09C317.13 315.53 318.9 318.76 319.35 322.07C319.68 323.25 320.1 324.38 320.61 325.48C322.91 330.4 320.1 326.16 312.18 312.76C307.37 300.6 308.45 286.59 311.55 274.2C316.18 255.7 325.01 238.31 326.49 219.13C326.53 218.61 325.7 218.55 325.58 219.05C317.2 254.43 285.2 303.4 323.88 332.14C325.08 333.03 327.3 332.11 326.62 330.4C316.98 305.98 328.02 289.45 338.9 268.45C346.96 252.91 354.28 236.7 363.64 221.92C363.9 221.51 363.36 221.11 362.99 221.32L362.99 221.32ZM421.18 129.48C439.22 160.78 461.34 185.17 471.76 221.2C482.59 258.64 482.32 297.07 472.59 334.65C471.36 339.4 478.76 341.1 479.99 336.38C497.04 271.02 485.88 167.63 422.38 128.17C421.56 127.66 420.76 128.74 421.18 129.48L421.18 129.48ZM473.94 334.28C475.36 331.12 479.9 333.64 478.64 336.75C445.9 417.43 372.85 475.62 286.45 488.56C201.01 501.35 113.84 463.37 58.64 398.21C-2.17 326.42 -22.08 232.11 29.78 150.14C75 78.65 159.81 -2.94 251.84 19.01C255.28 19.83 254.01 24.74 250.62 24.27C155.54 11.17 70.99 95.05 29.12 172.38C-13.62 251.33 20.26 344.19 79.58 404.76C135.66 462.04 214.83 492.89 294.81 478.45C374.98 463.98 440.87 407.82 473.94 334.28L473.94 334.28ZM411.47 104.77C413.26 107.09 409.83 109.27 407.86 107.81C386.44 92.02 367.7 73.92 344.77 59.92C326.17 48.57 303.53 42.18 286.33 29.23C285.04 28.27 285.93 25.75 287.56 25.89C310.89 28 335.25 44.57 354.52 57.01C375 70.23 396.49 85.36 411.47 104.77L411.47 104.77ZM268.56 19.19C271.91 20.37 271.89 25.57 267.92 25.69C263.92 25.81 259.89 25.31 255.95 24.59C252.96 24.04 248.68 23.26 247.11 20.38C246.73 19.7 246.68 18.74 247.3 18.15C249.67 15.89 253.32 16.23 256.39 16.59C260.52 17.07 264.65 17.8 268.56 19.19L268.56 19.19ZM480.31 295.86C480.15 296.28 479.53 296.27 479.5 295.78C476.09 248.03 475.59 176.68 431.95 145.23C431.22 144.7 432.09 143.57 432.84 143.97C456.59 156.57 464.73 179.72 472.58 204.12C481.89 233.08 491.21 266.23 480.31 295.86L480.31 295.86ZM424.04 142.63C421.85 139.69 426.65 136.67 428.82 139.57C454.57 173.87 469.61 215.8 476.66 257.94C476.74 258.46 475.92 258.48 475.83 257.96C468.65 213.95 450.51 178.13 424.04 142.63L424.04 142.63ZM420.57 147.73C420.14 147.21 421.04 146.47 421.48 146.97C448.68 178.2 469.22 215.84 470.79 258.18C470.86 259.9 468.09 260.44 467.75 258.69C459.76 217.89 447.57 180.31 420.57 147.73L420.57 147.73ZM417.1 160.47C416.64 159.74 417.67 158.81 418.28 159.47C429.15 171.47 441.45 188.43 443.29 204.96C443.41 206.09 441.83 206.44 441.27 205.59C436.56 198.53 434.07 190.13 430.1 182.62C426.1 175.07 421.61 167.71 417.1 160.47L417.1 160.47ZM402.52 159.01C400.71 156.17 405.08 153.39 406.92 156.19C415.43 169.24 423.56 183.36 425.48 199.06C425.59 199.91 424.29 200.27 423.88 199.55C416.26 186.25 410.81 171.98 402.52 159.01L402.52 159.01ZM395.2 171.09C392.53 168.13 396.72 163.52 399.4 166.49C402.99 170.46 408.79 178.63 404.64 183.9C404.12 184.56 403.09 184.49 402.51 183.99C400.77 182.51 400.18 180.4 399.46 178.31C398.53 175.61 397.11 173.21 395.2 171.09L395.2 171.09ZM391.65 104.48C391.83 104.79 391.44 105.12 391.17 104.88C359.4 77.35 330.92 53.72 290.41 40C287.78 39.11 288.62 34.98 291.4 35.72C329.86 45.99 371.27 69.39 391.65 104.48L391.65 104.48ZM387.58 114.89C387.99 115.37 387.38 116.09 386.9 115.63C359.04 88.37 326.25 64.25 289.95 49.52C289.35 49.28 289.83 48.4 290.42 48.63C328.53 63.53 360.74 83.64 387.58 114.89L387.58 114.89ZM374.33 128.83C374.55 129.11 374.09 129.39 373.87 129.12C358.13 109.73 337.41 94.83 317.09 80.58C316.52 80.18 316.94 79.3 317.6 79.6C341.47 90.46 358.57 108.3 374.33 128.83L374.33 128.83ZM365.46 128.55C366.92 130.31 363.91 132.8 362.41 131.12C357.09 125.14 351.28 119.75 344.91 114.91C339.37 110.71 332.04 107.75 327.66 102.28C327.21 101.72 327.74 100.76 328.44 100.8C335.47 101.17 341.76 106.41 347.2 110.55C354.04 115.77 360 121.93 365.46 128.55L365.46 128.55ZM360.65 136.62C361.27 137.32 360.58 138.55 359.66 138.03C353.13 134.32 344.63 129.92 340.84 123.12C340.38 122.28 341.05 120.98 342.11 121.31C349.64 123.65 355.61 130.93 360.65 136.62L360.65 136.62ZM352.83 140.99C356.02 145.1 346.97 147.87 347.27 142.71C347.29 142.36 347.31 142.01 347.33 141.66C347.48 139 350.56 138.05 352.19 140.16C352.4 140.43 352.62 140.71 352.83 140.99L352.83 140.99ZM271.03 39.65C271.47 39.86 271.19 40.49 270.75 40.42C134.13 16.86 -15.08 160.43 15.49 298.64C15.82 300.13 13.75 300.79 13.22 299.34C-13.74 226.09 31.28 149.37 85.04 101.68C130.92 60.97 207.55 9.19 271.03 39.65L271.03 39.65ZM268.95 50.57C269.06 50.6 269.03 50.76 268.91 50.74C190.61 37.4 126.59 78.91 76.8 136.08C32.32 187.15 13.86 240.35 9.59 307.09C9.52 308.22 8.01 308.26 7.85 307.15C-1.17 242.41 40.15 173.65 82.27 128.09C127.88 78.74 198.45 26.36 268.95 50.57L268.95 50.57ZM203.26 69.71C203.57 69.66 203.65 70.18 203.35 70.24C140.62 83.62 103.13 129.04 65.84 177.21C65.46 177.7 64.62 177.1 64.95 176.58C97.55 125.58 141.11 79.48 203.26 69.71L203.26 69.71ZM49.69 193.8C50.05 193.47 50.71 193.84 50.43 194.32C39.61 212.67 31.52 227.19 28.61 248.73C26.77 262.38 23.7 276.73 23.55 290.46C23.39 305.25 28.05 318.63 31.17 332.82C31.43 334 30.01 334.66 29.28 333.7C12.17 311.18 17.43 282.81 21.35 256.75C25.23 230.95 29.45 211.6 49.69 193.8L49.69 193.8ZM40.3 240.08C19.26 326.88 71.09 439.13 158.26 470.08C160.05 470.72 160.69 468.08 159.34 467.19C121.16 441.76 87.36 419.28 65.12 377.53C42.55 335.14 38.03 287.38 41.12 240.16C41.15 239.69 40.41 239.64 40.3 240.08L40.3 240.08ZM449.01 314.11C453.89 363.99 424.45 410.55 386.45 440.29C352.72 466.7 316.48 471.68 276.03 479.94C274.65 480.22 274.7 482.62 276.13 482.76C362.32 491.46 459.97 400.62 450.02 314.08C449.95 313.45 448.95 313.47 449.01 314.11L449.01 314.11ZM423.53 323.18C423.41 321.4 426.1 321.35 426.28 323.09C431.57 372.95 414.18 432.93 362.3 451.63C361.46 451.93 360.93 450.69 361.65 450.23C406.72 421.13 427.19 376.75 423.53 323.18L423.53 323.18ZM323.49 473.75C324.02 473.56 324.54 474.32 324.1 474.72C319.55 478.87 311.56 484.41 305.06 482.35C304.12 482.05 303.96 480.96 304.72 480.36C307.27 478.33 310.54 478.04 313.57 477.03C316.87 475.92 320.22 474.93 323.49 473.75L323.49 473.75ZM418.58 262.3C418.22 261.16 419.89 260.68 420.33 261.76C425.23 273.95 430.42 289.78 427.03 302.98C426.82 303.81 425.47 303.98 425.27 303.05C422.34 289.45 422.86 275.84 418.58 262.3L418.58 262.3ZM387.63 292.31C391.92 305 392.82 317.56 390.59 330.77C388.56 342.83 382.65 352.53 378.46 363.73C378.08 364.75 379.17 365.57 380.02 364.83C399.52 347.65 397.81 313.72 389.03 291.87C388.68 291.01 387.32 291.4 387.63 292.31L387.63 292.31ZM373.94 318.65C373.89 318.34 374.39 318.27 374.48 318.56C376.62 325.88 377.94 333.04 375.88 340.56C374.21 346.64 370.67 354.62 363.95 356.15C363.07 356.35 362.16 355.65 362.39 354.69C363.71 349.1 368.17 344.75 370.4 339.48C373.15 332.98 375.07 325.69 373.94 318.65L373.94 318.65ZM359.25 328.39C359.04 327.53 360.29 326.83 360.73 327.7C363.45 333.06 360.85 341.88 353.68 341.35C352.85 341.29 352.43 340.26 353.18 339.75C356.92 337.2 360.44 333.27 359.25 328.39L359.25 328.39ZM345.65 338.69C348.5 336.53 351.64 341.36 348.66 343.39C346.94 344.56 345.09 345.3 343.02 345.41C341.9 345.47 341.39 344.32 341.76 343.4C342.55 341.42 343.96 339.96 345.65 338.69L345.65 338.69ZM278.33 262.25C279.4 262.06 279.95 263.6 278.84 263.92C268.9 266.79 261.66 272.55 252.97 277.69C251.84 278.36 250.85 276.99 251.57 276.03C257.66 267.81 268.63 263.98 278.33 262.25L278.33 262.25ZM257.76 256.94C258.4 256.4 259.32 257.51 258.7 258.05C255.42 260.87 252.05 262.5 247.72 262.73C247.31 262.76 247.21 262.12 247.6 262.02C251.31 261.03 254.82 259.41 257.76 256.94L257.76 256.94ZM253.74 248.99C254.95 248.56 255.64 250.29 254.66 250.97C251.17 253.37 248.13 255.63 243.86 256.16C243.1 256.26 242.72 255.22 243.19 254.7C246.13 251.52 249.76 250.42 253.74 248.99L253.74 248.99ZM259.39 232.9C234.25 223.28 199.61 224.89 178.3 242.96C177.44 243.68 178.46 245.08 179.43 244.75C192.51 240.29 204.23 234.43 218.12 232.56C231.63 230.75 245.6 231.84 259.01 233.92C259.58 234.01 260.01 233.14 259.39 232.9L259.39 232.9ZM252.95 212.97C253.5 213.09 253.43 213.99 252.86 213.97C225.77 212.68 199.94 215.66 173.31 220.16C172.44 220.3 172.07 219.19 172.9 218.85C198.25 208.28 226.36 207.25 252.95 212.97L252.95 212.97ZM196.81 197.09C198.06 196.72 198.64 198.61 197.41 199.01C192.8 200.52 188.01 202.71 183.15 203.07C182.48 203.12 182.17 202.14 182.75 201.81C186.98 199.35 192.16 198.45 196.81 197.09L196.81 197.09ZM177.97 201.86C178.5 201.83 178.52 202.66 177.99 202.69C175.77 202.81 173.51 203.07 171.29 202.92C171.01 202.9 170.87 202.44 171.2 202.39C173.42 201.99 175.72 201.99 177.97 201.86L177.97 201.86ZM246.8 142.88C247.31 143.01 247.13 143.79 246.61 143.69C231.28 140.59 216.19 140.98 200.82 139.31C200.14 139.23 200.37 138.31 200.92 138.22C215.71 135.89 232.46 139.35 246.8 142.88L246.8 142.88ZM246.55 123.95C247.89 124.58 246.76 126.72 245.48 125.98C244.34 125.31 244.4 125.37 243.49 124.43C242.97 123.9 243.41 123.05 244.15 123.18C245.44 123.39 245.35 123.38 246.55 123.95L246.55 123.95ZM185.45 313.61C186.41 313.89 186.08 315.35 185.1 315.13C168.24 311.26 149.74 313.21 134.32 321.47C123.1 327.48 99.29 345.14 102.25 360.4C102.81 363.26 98.86 365.72 97.23 362.74C89.16 347.89 111.2 331.58 121.5 323.64C140.54 308.95 162.95 307.08 185.45 313.61L185.45 313.61ZM141.01 302.58C141.7 302.48 141.81 303.54 141.2 303.74C135.29 305.76 129.91 309.6 124.94 313.34C120.89 316.39 117.6 320.82 112.82 322.66C111.6 323.13 110.51 321.86 110.73 320.71C111.82 314.87 117.84 310.68 122.7 307.85C128.49 304.48 134.49 303.58 141.01 302.58L141.01 302.58ZM126.46 299.31C127.66 299.36 127.68 300.96 126.52 301.14C124.55 301.43 122.68 302.9 121.01 303.88C119.17 304.97 117.3 306.21 115.68 307.6C115.01 308.17 113.76 307.76 114.04 306.73C114.76 304.04 115.96 302.15 118.31 300.59C120.97 298.81 123.45 299.16 126.46 299.31L126.46 299.31ZM111.46 309.28C111.91 307.77 114.09 308.93 113.1 310.14C112.65 310.73 112.17 311.3 111.66 311.84C111.35 312.18 110.77 311.87 110.88 311.43C111.03 310.7 111.23 309.98 111.46 309.28L111.46 309.28ZM212.06 339.91C211.68 339.57 212.15 338.86 212.58 339.16C220.7 344.79 227.7 354.72 226.12 365.06C226.01 365.78 224.89 365.79 224.71 365.11C222.15 355.31 219.89 347.02 212.06 339.91L212.06 339.91ZM220.7 402.07C221.87 401.24 223.56 402.47 223.2 403.83C222.25 407.4 218.86 409.98 215.2 408.01C214.25 407.5 214.35 406.33 215.11 405.72C216.87 404.29 218.87 403.37 220.7 402.07L220.7 402.07ZM486.26 53.66C486.55 53.57 486.68 54.02 486.4 54.1C485.36 54.4 484.32 54.71 483.28 55.02C483.05 55.08 482.95 54.74 483.17 54.67C484.2 54.33 485.23 54 486.26 53.66L486.26 53.66ZM244.22 469.77C245.76 469.64 245.8 471.98 244.3 472.15C226.93 474.05 209.92 475.75 193.62 468.9C193.06 468.67 193.31 467.78 193.88 467.78C210.82 467.75 227.23 471.17 244.22 469.77L244.22 469.77ZM177.62 460.85C180.28 461.58 179.34 465.74 176.64 465.04C170.72 463.49 165.58 461.11 159.99 458.65C159.63 458.49 159.89 458.02 160.21 458.06C166.22 458.73 171.78 459.22 177.62 460.85L177.62 460.85ZM154.85 455.96C155.09 456.12 154.99 456.56 154.66 456.47C151.72 455.66 148.53 456.17 145.53 455.35C143.25 454.73 141.17 453.76 139.27 452.35C133.73 448.24 130.09 443.06 123.11 441.05C119.15 439.91 122.79 434.08 125.6 437.51C130.11 443.01 136.29 443.79 142.56 446.11C145.1 447.05 147.21 448.42 149.26 450.18C151.26 451.9 152.71 454.46 154.85 455.96L154.85 455.96ZM201.13 456.03C202.43 456.2 201.95 458.13 200.68 458C182.45 455.99 162.09 451.8 147.53 440.05C147.15 439.74 147.5 439.01 147.98 439.18C165.83 445.72 182.01 453.63 201.13 456.03L201.13 456.03ZM138.47 435.26C139.66 435.79 138.64 437.72 137.53 437.04C136.63 436.49 136.3 436.26 135.47 435.62C134.9 435.18 135.45 434.14 136.13 434.36C137.13 434.69 137.5 434.83 138.47 435.26L138.47 435.26ZM455.37 289.56C455.12 288.99 456.09 288.55 456.36 289.1C462.14 300.94 469.14 314.09 469.38 327.53C469.65 342.72 460.5 356.31 459.07 371.46C459.01 372.11 458.17 372.14 458.07 371.49C456.32 360.18 462.09 350.52 464.32 339.66C467.98 321.85 462.39 305.68 455.37 289.56L455.37 289.56ZM458.83 313.13C458.93 325.91 457.64 338.57 454.49 350.97C451.64 362.22 446.24 372.24 442.54 383.11C442.19 384.14 443.64 384.45 444.15 383.72C457.66 364.45 460.92 336.01 460.38 313.08C460.36 312.07 458.82 312.13 458.83 313.13L458.83 313.13ZM358.52 397.53C358.84 396.88 359.91 397.28 359.71 397.98C357.69 405.16 354.36 412.55 349.37 418.18C345.49 422.55 338.39 429.38 332.06 427.71C331 427.43 330.44 426.26 330.95 425.27C333.4 420.44 340.38 418.03 344.55 414.64C350.56 409.76 355.11 404.55 358.52 397.53L358.52 397.53ZM356.44 418.49C358.13 416.91 360.79 419.42 359.07 420.9C355.85 423.68 352.29 427.71 348.21 429.14C347.58 429.36 347.08 428.65 347.34 428.1C349.16 424.3 353.4 421.32 356.44 418.49L356.44 418.49Z" />
</svg>